<svg width="397" height="467" viewBox="0 0 397 467" fill="none" xmlns="http://www.w3.org/2000/svg">
<g clip-path="url(#clip0_152_1091)">
<path d="M132.867 97.3455C160.622 67.8957 188.378 38.412 216.201 9.01301C218.422 6.67465 219.898 3.201 223.814 2.896C223.814 32.9389 223.814 62.9817 223.814 93.9057C239.718 92.7026 254.808 95.4985 269.797 92.296C281.004 95.1088 292.33 93.4143 303.605 93.2279C305.284 93.2279 306.979 93.2279 308.658 93.2279C310.286 93.1093 311.913 93.0076 313.524 92.889C313.948 93.2957 314.456 93.4651 315.05 93.4143C298.213 107.631 305.08 126.575 303.876 145.333C335.04 145.333 365.152 145.333 395.282 145.333C383.803 161.108 370.036 174.952 357.59 189.897C340.483 192.524 323.138 189.507 305.877 192.015C304.487 193.913 304.622 196.167 304.775 198.42C303.927 199.098 303.622 199.894 304.249 200.877C304.385 204.249 304.504 207.638 304.639 211.01C303.944 212.128 303.944 213.247 304.639 214.348C304.521 216.585 304.419 218.822 304.3 221.058C304.317 221.685 304.351 222.312 304.368 222.922C304.453 226.836 304.555 230.768 304.639 234.682C304.639 235.258 304.639 235.851 304.639 236.427C304.589 238.122 304.555 239.816 304.504 241.494C303.554 242.9 303.775 244.222 304.775 245.476C304.572 255.287 304.724 265.131 304.029 274.908C303.537 281.923 306.572 283.737 312.863 283.415C319.611 283.059 326.393 283.381 333.141 283.245C353.962 282.822 374.8 284.364 395.587 282.279C391.009 291.396 383.108 297.851 376.818 305.595C371.002 312.746 364.678 319.49 358.591 326.403C356.624 328.403 354.132 328.403 351.554 328.403C322.866 328.267 294.195 328.182 265.507 328.064C265.236 327.911 264.947 327.894 264.659 327.979C264.659 313.813 264.659 299.665 264.659 285.499C264.066 285.262 263.472 285.024 262.862 284.787C250.569 299.122 238.277 313.441 225.984 327.776C217.32 327.996 208.639 328.03 199.992 328.487C190.548 328.979 180.985 326.861 171.66 329.843C159.028 326.59 146.007 330.063 132.053 327.759C132.053 313.678 132.053 299.665 132.053 283.432C118.251 299.495 106.145 313.593 94.0223 327.691C79.7122 329.368 65.3342 328.369 51.0071 328.182C43.0551 328.064 40.0032 330.131 40.3253 338.519C40.9357 354.277 40.4949 370.07 40.4949 385.862C40.4949 397.079 40.4949 408.28 40.4949 419.988C71.455 419.988 101.415 419.988 133.002 419.988C133.002 403.908 133.002 388.505 133.002 373.086C145.888 358.547 158.774 344.009 171.66 329.47C171.745 356.819 172.067 384.184 171.762 411.533C171.677 418.768 173.356 421.361 181.087 421.192C205.621 420.683 230.172 420.971 254.723 421.056C257.708 421.073 260.997 420.039 263.557 422.649C252.638 435.035 241.448 447.202 230.918 459.91C226.697 464.993 222.288 466.773 215.794 466.688C188.446 466.349 161.097 466.552 133.002 466.552C133.002 451.963 133.002 437.967 133.002 423.649C128.831 423.564 127.763 426.58 126.101 428.444C116.386 439.441 106.823 450.574 97.1929 461.638C95.1922 463.943 93.5815 466.586 89.8174 466.569C60.485 466.485 31.1526 466.518 2.37963 466.518C-0.316238 463.841 0.53152 461.164 0.514565 458.724C0.446744 432.748 0.599341 406.772 0.361968 380.812C0.311103 375.915 1.7862 372.306 4.97377 368.714C16.3337 355.904 27.4563 342.89 39.9014 328.521C25.9304 328.521 13.7057 328.521 1.70143 328.521C-0.401014 323.285 0.548475 318.744 0.514565 314.305C0.395879 290.87 0.650206 267.436 0.328058 244.018C0.243282 238.189 2.04053 233.919 5.83849 229.683C16.9102 217.364 27.6598 204.741 39.7319 190.829C25.8795 190.829 13.6887 190.829 1.76925 190.829C-0.384059 185.864 0.514565 181.577 0.49761 177.443C0.412834 153.212 0.56543 128.93 0.378924 104.649C0.345013 100.107 1.58274 96.7185 4.66858 93.3296C16.6389 80.2144 28.3041 66.8282 40.0879 53.5435C40.0879 83.8914 40.0879 114.239 40.0879 144.502C71.7941 144.502 101.822 144.502 132.867 144.502C132.867 128.32 132.867 112.833 132.867 97.3455ZM132.494 190.609C132.494 176.274 132.494 161.955 132.494 147.62C131.849 147.552 131.188 147.468 130.544 147.4C118.217 161.65 105.908 175.901 93.5815 190.168C76.1516 190.168 58.7217 190.168 40.6644 190.168C40.6644 221.719 40.6644 252.016 40.6644 282.788C71.3363 282.788 101.398 282.788 131.561 282.788C133.307 277.874 132.205 273.061 132.494 268.368C133.172 257.15 131.222 245.848 133.562 234.682C145.973 220.448 158.367 206.215 172.067 190.507C157.163 190.507 144.769 190.507 132.375 190.507L132.494 190.609ZM225.917 189.999C211.03 191.676 196.092 190.677 181.172 190.592C174.576 190.558 172.355 192.405 172.457 199.166C172.813 224.244 172.847 249.339 172.44 274.417C172.321 281.449 174.966 282.839 181.291 282.754C206.096 282.466 230.918 282.652 255.724 282.584C258.42 282.584 261.387 283.364 265.117 279.755C265.117 265.623 265.117 250.186 265.117 234.75C277.562 220.635 290.007 206.537 302.435 192.422C302.045 191.744 301.672 191.049 301.282 190.372C289.108 190.372 276.952 190.372 264.252 190.372C264.252 176.511 264.252 163.701 264.252 148.688C250.569 163.43 238.243 176.714 225.917 189.999Z" fill="#2A1D16"/>
<path d="M265.507 328.08C294.195 328.182 322.866 328.267 351.554 328.419C354.131 328.436 356.624 328.419 358.591 326.42C364.525 330.368 371.154 327.826 377.445 328.301C383.294 328.741 389.212 328.386 394.129 328.386C396.723 330.199 396.587 331.961 396.587 333.621C396.604 361.241 396.604 388.844 396.587 416.464C396.587 418.395 396.842 420.463 395.248 422.039C392.433 420.056 389.229 421.005 386.228 421.005C361.456 420.92 336.668 420.768 311.896 421.09C305.674 421.174 303.622 419.48 303.707 413.058C304.063 388.573 303.876 364.088 303.792 339.603C303.775 336.654 304.894 333.35 302.164 330.842C300.18 328.047 297.162 328.894 294.5 328.86C284.768 328.741 275.036 328.775 265.32 328.741L265.507 328.08Z" fill="#D8FFEE"/>
<path d="M265.507 328.08C265.507 328.08 265.337 328.741 265.337 328.724C264.031 343.348 264.421 357.988 265.134 372.628C264.947 375.678 264.693 378.711 264.591 381.761C264.116 395.368 265.523 408.991 263.76 422.581C263.76 422.581 263.523 422.648 263.54 422.648C260.98 420.039 257.69 421.073 254.723 421.056C230.172 420.971 205.621 420.7 181.087 421.191C173.355 421.344 171.677 418.768 171.761 411.533C172.067 384.184 171.744 356.835 171.66 329.47L171.677 329.843C180.985 326.86 190.565 328.978 200.009 328.487C208.656 328.03 217.337 327.996 226.001 327.775C238.887 327.843 251.773 327.911 264.676 327.979C264.947 327.911 265.235 327.945 265.507 328.08Z" fill="#D2E1FF"/>
<path d="M395.587 282.296C374.8 284.38 353.945 282.839 333.141 283.262C326.376 283.398 319.611 283.076 312.862 283.432C306.572 283.77 303.52 281.957 304.029 274.925C304.724 265.148 304.571 255.303 304.792 245.492C305.351 244.12 305.453 242.781 304.52 241.511C304.571 239.816 304.605 238.122 304.656 236.444C304.775 236.258 305.029 236.071 304.995 235.902C304.944 235.495 304.775 235.105 304.656 234.699C304.571 230.785 304.47 226.853 304.385 222.939C304.537 222.753 304.843 222.516 304.826 222.363C304.724 221.923 304.503 221.499 304.317 221.075C304.436 218.839 304.537 216.602 304.656 214.365C305.606 213.247 305.606 212.128 304.656 211.027C304.52 207.655 304.402 204.266 304.266 200.894C304.436 200.081 304.622 199.251 304.792 198.437C304.639 196.184 304.52 193.93 305.894 192.032C323.154 189.524 340.499 192.54 357.607 189.914C368.17 192.625 378.92 190.609 389.568 191.185C393.128 191.388 396.468 191.168 396.384 196.251C395.875 224.905 397.299 253.609 395.587 282.296Z" fill="#87A9F0"/>
<path d="M132.867 97.3464C132.867 112.834 132.867 128.321 132.867 144.486C101.839 144.486 71.7945 144.486 40.0884 144.486C40.0884 114.223 40.0884 83.8754 40.0884 53.5275C68.7596 53.375 97.4308 53.3072 126.102 53.0192C130.815 52.9683 132.545 54.6967 132.511 59.4073C132.443 72.0649 132.731 84.7056 132.867 97.3464Z" fill="#87A9F0"/>
<path d="M395.282 145.316C365.152 145.316 335.04 145.316 303.876 145.316C305.08 126.576 298.213 107.632 315.05 93.3981C316.593 79.9779 316.101 66.5578 315.304 53.1207L315.999 52.731C339.957 52.8496 363.932 53.2224 387.889 52.9343C394.909 52.8496 397.045 54.8999 396.943 61.9488C396.553 87.0269 396.808 112.122 396.757 137.217C396.757 139.979 397.401 142.927 395.282 145.316Z" fill="#D2E1FF"/>
<path d="M263.761 422.598C265.524 409.025 264.117 395.385 264.592 381.778C264.693 378.728 264.948 375.695 265.134 372.645C277.477 358.717 289.838 344.771 302.181 330.843C304.911 333.351 303.792 336.655 303.809 339.603C303.894 364.088 304.063 388.573 303.724 413.058C303.639 419.48 305.691 421.175 311.913 421.09C336.685 420.768 361.473 420.921 386.245 421.005C389.246 421.022 392.451 420.056 395.265 422.039C383.702 435.476 372.121 448.913 360.558 462.35C358.71 464.502 356.929 466.552 353.64 466.552C324.376 466.502 295.111 466.519 263.761 466.519C263.761 451.523 263.761 437.052 263.761 422.598Z" fill="#2A1D16"/>
<path d="M269.797 92.2791C254.808 95.4986 239.735 92.7028 223.814 93.8889C223.814 62.9818 223.814 32.939 223.814 2.87919C225.849 0.0155421 228.901 0.964442 231.58 0.964442C256.64 0.896664 281.716 1.13389 306.776 0.794996C313.558 0.710273 316.237 2.38779 316 9.65705C315.508 23.9922 315.949 38.3613 316.017 52.7134L315.321 53.1031C311.337 53.3742 307.217 51.9 303.402 54.0859C292.195 66.8452 280.987 79.5706 269.797 92.2791Z" fill="#D8FFEE"/>
<path d="M133.579 234.647C131.239 245.814 133.189 257.116 132.51 268.333C132.222 273.044 133.324 277.839 131.578 282.753C101.415 282.753 71.3531 282.753 40.6812 282.753C40.6812 251.982 40.6812 221.685 40.6812 190.134C58.7384 190.134 76.1683 190.134 93.5982 190.134C106.569 190.286 119.54 190.439 132.51 190.574L132.409 190.456C133.206 205.198 131.035 219.99 133.579 234.647Z" fill="#D2E1FF"/>
<path d="M133.019 373.102C133.019 388.505 133.019 403.908 133.019 420.005C101.432 420.005 71.4719 420.005 40.5118 420.005C40.5118 408.296 40.5118 397.096 40.5118 385.879C40.5118 370.103 40.9526 354.294 40.3422 338.535C40.0201 330.131 43.072 328.08 51.024 328.199C65.3511 328.402 79.7121 329.385 94.0393 327.725C106.349 330.622 119.099 327.03 131.612 329.758C133.257 344.517 130.815 358.886 133.019 373.102Z" fill="#87A9F0"/>
<path d="M265.134 234.733C265.134 250.17 265.134 265.606 265.134 279.738C261.404 283.347 258.437 282.568 255.741 282.568C230.935 282.636 206.113 282.449 181.308 282.737C174.983 282.805 172.355 281.416 172.457 274.401C172.864 249.323 172.813 224.228 172.474 199.149C172.372 192.406 174.593 190.542 181.189 190.575C196.092 190.66 211.03 191.66 225.934 189.982C234.886 191.44 243.906 190.525 252.892 190.66C264.507 190.83 264.439 190.711 264.54 202.708C264.642 213.4 264.93 224.075 265.134 234.733Z" fill="#D8FFEE"/>
<path d="M269.796 92.2788C281.004 79.5534 292.194 66.828 303.402 54.1025C303.469 67.133 303.537 80.1634 303.605 93.2108C292.313 93.4141 280.987 95.0916 269.796 92.2788Z" fill="#407773"/>
<path d="M313.524 92.8726C311.897 92.9913 310.269 93.0929 308.658 93.2115C306.539 91.2121 305.25 88.9584 305.318 85.8576C305.471 77.453 305.403 69.0315 305.403 60.61C305.403 57.56 305.742 54.8997 309.777 55.0014C313.897 55.103 313.88 58.0175 313.863 60.915C313.762 71.5732 313.643 82.2145 313.524 92.8726Z" fill="#454F98"/>
<path d="M313.524 92.8718C313.626 82.2136 313.745 71.5723 313.846 60.9142C313.863 58.0166 313.897 55.1021 309.76 55.0005C305.725 54.8988 305.386 57.5591 305.386 60.6092C305.403 69.0307 305.471 77.4352 305.301 85.8567C305.25 88.9745 306.539 91.2112 308.641 93.2107C306.963 93.2107 305.267 93.2107 303.589 93.2107C303.521 80.1802 303.453 67.1329 303.368 54.1024C307.183 51.9166 311.303 53.3907 315.288 53.1366C316.068 66.5737 316.576 79.9938 315.033 93.414C314.474 93.4479 313.965 93.2784 313.524 92.8718Z" fill="#4A4D7F"/>
<path d="M304.622 210.993C305.572 212.112 305.572 213.23 304.622 214.331C303.927 213.23 303.927 212.112 304.622 210.993Z" fill="#4A4D7F"/>
<path d="M304.487 241.511C305.403 242.782 305.318 244.12 304.758 245.493C303.758 244.222 303.537 242.9 304.487 241.511Z" fill="#4A4D7F"/>
<path d="M304.758 198.403C304.588 199.217 304.402 200.047 304.232 200.86C303.605 199.878 303.91 199.081 304.758 198.403Z" fill="#4A4D7F"/>
<path d="M304.284 221.059C304.47 221.482 304.691 221.906 304.792 222.346C304.826 222.499 304.521 222.736 304.352 222.923C304.335 222.296 304.301 221.686 304.284 221.059Z" fill="#4A4D7F"/>
<path d="M304.623 234.681C304.741 235.087 304.911 235.477 304.962 235.884C304.979 236.053 304.741 236.24 304.623 236.426C304.623 235.85 304.623 235.274 304.623 234.681Z" fill="#4A4D7F"/>
</g>
<defs>
<clipPath id="clip0_152_1091">
<rect width="396.615" height="465.893" fill="white" transform="translate(0.328613 0.8125)"/>
</clipPath>
</defs>
</svg>
