<svg width="281" height="233" viewBox="0 0 281 233" fill="none" xmlns="http://www.w3.org/2000/svg">
<path d="M197.917 18.0232L254.811 116.567L197.917 215.111L84.1281 215.111L27.2337 116.567L84.1282 18.0232L197.917 18.0232Z" stroke="black" stroke-width="3.14961"/>
<path d="M177.794 50.7212L215.355 115.778L177.794 180.836L102.673 180.836L65.1118 115.778L102.673 50.7212L177.794 50.7212Z" stroke="black" stroke-width="3.14961"/>
<path d="M103.087 50.5495L83.9317 18.0277" stroke="black" stroke-width="3.14961"/>
<path d="M178.652 51.73L198.33 17.7228" stroke="black" stroke-width="3.14961"/>
<path d="M216.041 116.275L255.004 116.275" stroke="black" stroke-width="3.14961"/>
<path d="M177.078 181.269L197.937 215.06" stroke="black" stroke-width="3.14961"/>
<path d="M103.088 182.663L83.8027 216.242" stroke="black" stroke-width="3.14961"/>
<path d="M64.2941 116.669L26.7356 116.669" stroke="black" stroke-width="3.14961"/>
<circle cx="127.213" cy="116.962" r="9.46954" fill="black"/>
<circle cx="154.043" cy="116.962" r="9.46954" fill="black"/>
<path d="M198.629 20.7358L180.084 52.6955L217.174 116.22H253.473L198.629 20.7358Z" fill="#87A9F0"/>
<path d="M253.068 118.57L216.211 118.49L179.833 182.211L197.937 213.568L253.068 118.57Z" fill="#87A9F0"/>
<circle cx="211.65" cy="76.7171" r="9.46954" fill="black"/>
<circle cx="221.119" cy="144.581" r="9.46954" fill="black"/>
<circle cx="202.18" cy="176.147" r="9.46954" fill="black"/>
<path d="M28.7035 116.719L63.2937 116.719L101.567 51.1175L84.0305 20.6888L28.7035 116.719Z" fill="#FF1384"/>
</svg>
