<svg width="550" height="418" viewBox="0 0 550 418" fill="none" xmlns="http://www.w3.org/2000/svg">
<path d="M384.902 126.666L360.856 85.9952L384.902 45.3243L433.038 45.3243L457.084 85.9952L433.038 126.666L384.902 126.666Z" fill="#D2E1FF" stroke="black" stroke-width="2.09929"/>
<path d="M384.902 101.611L360.856 60.94L384.902 20.2691L433.038 20.2691L457.084 60.94L433.038 101.611L384.902 101.611Z" fill="#D2E1FF" stroke="black" stroke-width="2.09929"/>
<line x1="360.681" y1="86.1108" x2="360.681" y2="61.2764" stroke="black" stroke-width="2.08925"/>
<path d="M457.483 86.1108L457.483 61.2764" stroke="black" stroke-width="2.08925"/>
<path d="M433.108 126.465L433.108 101.286" stroke="black" stroke-width="2.08925"/>
<path d="M385.056 127.5L385.056 100.94" stroke="black" stroke-width="2.08925"/>
<path d="M361.726 64.7236L384.708 102.32V124.395L361.726 85.0741V64.7236Z" fill="#D2E1FF"/>
<path d="M434.153 101.977L456.438 64.1529L456.438 85.4207L434.153 122.672L434.153 101.977Z" fill="#D2E1FF"/>
<path d="M311.744 167.367L287.698 126.696L311.744 86.0255L359.88 86.0255L383.926 126.696L359.88 167.367L311.744 167.367Z" fill="#87A9F0" stroke="black" stroke-width="2.09929"/>
<path d="M311.744 142.313L287.698 101.642L311.744 60.9713L359.88 60.9713L383.926 101.642L359.88 142.313L311.744 142.313Z" fill="#87A9F0" stroke="black" stroke-width="2.09929"/>
<line x1="287.523" y1="126.812" x2="287.523" y2="101.978" stroke="black" stroke-width="2.08925"/>
<path d="M384.325 126.812L384.325 101.978" stroke="black" stroke-width="2.08925"/>
<path d="M359.95 167.167L359.95 141.988" stroke="black" stroke-width="2.08925"/>
<path d="M311.898 168.202L311.898 141.643" stroke="black" stroke-width="2.08925"/>
<path d="M288.568 105.426L311.55 143.022V165.097L288.568 125.776V105.426Z" fill="#87A9F0"/>
<path d="M360.995 142.679L383.28 104.855L383.28 126.122L360.995 163.374L360.995 142.679Z" fill="#87A9F0"/>
<path d="M93.0696 207.451L69.0236 166.78L93.0696 126.109L141.205 126.109L165.251 166.78L141.205 207.451L93.0696 207.451Z" fill="#FF1384" stroke="black" stroke-width="2.09929"/>
<path d="M93.0696 182.395L69.0236 141.724L93.0696 101.053L141.205 101.053L165.251 141.724L141.205 182.395L93.0696 182.395Z" fill="#FF1384" stroke="black" stroke-width="2.09929"/>
<line x1="68.8484" y1="166.895" x2="68.8484" y2="142.061" stroke="black" stroke-width="2.08925"/>
<path d="M165.65 166.895L165.65 142.061" stroke="black" stroke-width="2.08925"/>
<path d="M141.275 207.251L141.275 182.072" stroke="black" stroke-width="2.08925"/>
<path d="M93.2231 208.285L93.2231 181.726" stroke="black" stroke-width="2.08925"/>
<path d="M69.8931 145.509L92.8748 183.106V205.181L69.8931 165.86V145.509Z" fill="#FF1384"/>
<path d="M142.32 182.761L164.606 144.937L164.606 166.205L142.32 203.457L142.32 182.761Z" fill="#FF1384"/>
<path d="M238.62 208.068L214.574 167.397L238.62 126.726L286.756 126.726L310.802 167.397L286.756 208.068L238.62 208.068Z" fill="#87A9F0" stroke="black" stroke-width="2.09929"/>
<path d="M238.62 183.012L214.574 142.341L238.62 101.67L286.756 101.67L310.802 142.341L286.756 183.012L238.62 183.012Z" fill="#87A9F0" stroke="black" stroke-width="2.09929"/>
<line x1="214.399" y1="167.511" x2="214.399" y2="142.677" stroke="black" stroke-width="2.08925"/>
<path d="M311.201 167.511L311.201 142.677" stroke="black" stroke-width="2.08925"/>
<path d="M286.826 207.867L286.826 182.687" stroke="black" stroke-width="2.08925"/>
<path d="M238.773 208.902L238.773 182.343" stroke="black" stroke-width="2.08925"/>
<path d="M215.444 146.126L238.426 183.723V205.798L215.444 166.476V146.126Z" fill="#87A9F0"/>
<path d="M287.871 183.378L310.156 145.554L310.156 166.822L287.871 204.073L287.871 183.378Z" fill="#87A9F0"/>
<path d="M165.497 248.77L141.451 208.099L165.497 167.428L213.633 167.428L237.679 208.099L213.633 248.77L165.497 248.77Z" fill="#D8FFEE" stroke="black" stroke-width="2.09929"/>
<path d="M165.497 223.712L141.451 183.042L165.497 142.371L213.633 142.371L237.679 183.042L213.633 223.712L165.497 223.712Z" fill="#D8FFEE" stroke="black" stroke-width="2.09929"/>
<line x1="141.276" y1="208.212" x2="141.276" y2="183.378" stroke="black" stroke-width="2.08925"/>
<path d="M238.078 208.212L238.078 183.378" stroke="black" stroke-width="2.08925"/>
<path d="M213.703 248.568L213.703 223.389" stroke="black" stroke-width="2.08925"/>
<path d="M165.651 249.603L165.651 223.044" stroke="black" stroke-width="2.08925"/>
<path d="M142.321 186.827L165.302 224.424V246.499L142.321 207.178V186.827Z" fill="#D8FFEE"/>
<path d="M214.748 224.079L237.033 186.255L237.033 207.523L214.748 244.774L214.748 224.079Z" fill="#D8FFEE"/>
<path d="M253.123 9.30078L189.907 89.616V175.567" stroke="black" stroke-width="1.73194"/>
<path d="M238.553 289.47L214.507 248.799L238.553 208.128L286.689 208.128L310.735 248.799L286.689 289.47L238.553 289.47Z" fill="#87A9F0" stroke="black" stroke-width="2.09929"/>
<path d="M238.553 264.414L214.507 223.743L238.553 183.072L286.689 183.072L310.735 223.743L286.689 264.414L238.553 264.414Z" fill="#87A9F0" stroke="black" stroke-width="2.09929"/>
<line x1="214.332" y1="248.914" x2="214.332" y2="224.079" stroke="black" stroke-width="2.08925"/>
<path d="M311.134 248.914L311.134 224.079" stroke="black" stroke-width="2.08925"/>
<path d="M286.759 289.27L286.759 264.091" stroke="black" stroke-width="2.08925"/>
<path d="M238.707 290.304L238.707 263.745" stroke="black" stroke-width="2.08925"/>
<path d="M215.377 227.528L238.359 265.125V287.2L215.377 247.879V227.528Z" fill="#87A9F0"/>
<path d="M287.804 264.78L310.089 226.956L310.089 248.223L287.804 285.475L287.804 264.78Z" fill="#87A9F0"/>
<path d="M311.677 330.17L287.631 289.499L311.677 248.828L359.812 248.828L383.858 289.499L359.812 330.17L311.677 330.17Z" fill="#87A9F0" stroke="black" stroke-width="2.09929"/>
<path d="M311.677 305.114L287.631 264.443L311.677 223.773L359.812 223.773L383.858 264.443L359.812 305.114L311.677 305.114Z" fill="#87A9F0" stroke="black" stroke-width="2.09929"/>
<line x1="287.456" y1="289.614" x2="287.456" y2="264.78" stroke="black" stroke-width="2.08925"/>
<path d="M384.257 289.614L384.257 264.78" stroke="black" stroke-width="2.08925"/>
<path d="M359.882 329.97L359.882 304.791" stroke="black" stroke-width="2.08925"/>
<path d="M311.831 331.005L311.831 304.446" stroke="black" stroke-width="2.08925"/>
<path d="M288.5 268.229L311.482 305.825V327.9L288.5 288.579V268.229Z" fill="#87A9F0"/>
<path d="M360.927 305.48L383.213 267.656L383.213 288.924L360.927 326.176L360.927 305.48Z" fill="#87A9F0"/>
<path d="M384.8 369.491L360.754 328.82L384.8 288.149L432.936 288.149L456.982 328.82L432.936 369.491L384.8 369.491Z" fill="#D2E1FF" stroke="black" stroke-width="2.09929"/>
<path d="M384.8 344.436L360.754 303.765L384.8 263.094L432.936 263.094L456.982 303.765L432.936 344.436L384.8 344.436Z" fill="#D2E1FF" stroke="black" stroke-width="2.09929"/>
<line x1="360.579" y1="328.935" x2="360.579" y2="304.101" stroke="black" stroke-width="2.08925"/>
<path d="M457.381 328.935L457.381 304.101" stroke="black" stroke-width="2.08925"/>
<path d="M433.007 369.292L433.007 344.112" stroke="black" stroke-width="2.08925"/>
<path d="M384.954 370.326L384.954 343.767" stroke="black" stroke-width="2.08925"/>
<path d="M361.624 307.55L384.606 345.146V367.221L361.624 327.9V307.55Z" fill="#D2E1FF"/>
<path d="M434.052 344.802L456.337 306.978L456.337 328.245L434.052 365.497L434.052 344.802Z" fill="#D2E1FF"/>
<path d="M457.923 410.192L433.877 369.522L457.923 328.851L506.059 328.851L530.105 369.522L506.059 410.192L457.923 410.192Z" fill="#D2E1FF" stroke="black" stroke-width="2.09929"/>
<path d="M457.923 385.136L433.877 344.465L457.923 303.795L506.059 303.794L530.105 344.465L506.059 385.136L457.923 385.136Z" fill="#D2E1FF" stroke="black" stroke-width="2.09929"/>
<line x1="433.702" y1="369.635" x2="433.702" y2="344.801" stroke="black" stroke-width="2.08925"/>
<path d="M530.504 369.635L530.504 344.801" stroke="black" stroke-width="2.08925"/>
<path d="M506.129 409.992L506.129 384.812" stroke="black" stroke-width="2.08925"/>
<path d="M458.077 411.026L458.077 384.467" stroke="black" stroke-width="2.08925"/>
<path d="M434.747 348.25L457.729 385.847V407.922L434.747 368.601V348.25Z" fill="#D2E1FF"/>
<path d="M507.174 385.502L529.46 347.678L529.46 368.946L507.174 406.198L507.174 385.502Z" fill="#D2E1FF"/>
<path d="M144.533 324.14V325.511H139.701V329.05H144.33V330.421H139.701V335.051H138.251V324.14H144.533ZM152.726 334.069C151.936 334.859 150.965 335.253 149.811 335.253C148.658 335.253 147.686 334.859 146.896 334.069C146.107 333.279 145.712 332.307 145.712 331.154C145.712 330 146.107 329.029 146.896 328.239C147.686 327.449 148.658 327.054 149.811 327.054C150.965 327.054 151.936 327.449 152.726 328.239C153.526 329.039 153.926 330.011 153.926 331.154C153.926 332.297 153.526 333.269 152.726 334.069ZM149.811 333.928C150.591 333.928 151.245 333.663 151.775 333.134C152.305 332.604 152.57 331.944 152.57 331.154C152.57 330.364 152.305 329.704 151.775 329.174C151.245 328.644 150.591 328.379 149.811 328.379C149.042 328.379 148.393 328.644 147.863 329.174C147.333 329.704 147.068 330.364 147.068 331.154C147.068 331.944 147.333 332.604 147.863 333.134C148.393 333.663 149.042 333.928 149.811 333.928ZM156.881 327.257V328.566C157.328 327.6 158.138 327.117 159.313 327.117V328.535C158.648 328.504 158.076 328.681 157.598 329.065C157.12 329.45 156.881 330.068 156.881 330.92V335.051H155.525V327.257H156.881ZM160.946 334.084C160.167 333.295 159.777 332.318 159.777 331.154C159.777 329.99 160.167 329.018 160.946 328.239C161.725 327.449 162.702 327.054 163.876 327.054C164.645 327.054 165.336 327.236 165.95 327.6C166.573 327.984 167.03 328.483 167.321 329.096L166.183 329.751C165.986 329.335 165.685 329.003 165.279 328.753C164.853 328.504 164.386 328.379 163.876 328.379C163.097 328.379 162.442 328.644 161.912 329.174C161.393 329.725 161.133 330.385 161.133 331.154C161.133 331.912 161.393 332.567 161.912 333.118C162.442 333.648 163.097 333.913 163.876 333.913C164.968 333.913 165.752 333.461 166.23 332.557L167.384 333.227C167.041 333.851 166.563 334.344 165.95 334.708C165.305 335.072 164.614 335.253 163.876 335.253C162.702 335.253 161.725 334.864 160.946 334.084ZM176.098 331.777H169.567C169.712 332.474 170.029 333.014 170.518 333.399C171.006 333.783 171.63 333.975 172.388 333.975C173.417 333.975 174.165 333.596 174.633 332.837L175.786 333.492C175.017 334.666 173.874 335.253 172.357 335.253C171.141 335.253 170.133 334.869 169.333 334.1C168.564 333.3 168.18 332.318 168.18 331.154C168.18 329.959 168.559 328.982 169.317 328.223C170.076 327.444 171.058 327.054 172.264 327.054C173.407 327.054 174.337 327.46 175.054 328.27C175.781 329.06 176.145 330.026 176.145 331.169C176.145 331.367 176.129 331.57 176.098 331.777ZM170.455 328.94C169.967 329.346 169.671 329.897 169.567 330.593H174.773C174.669 329.876 174.378 329.315 173.9 328.909C173.453 328.525 172.908 328.333 172.264 328.333C171.536 328.333 170.933 328.535 170.455 328.94ZM182.645 334.536C181.938 334.069 181.434 333.414 181.133 332.572L182.38 331.855C182.796 333.175 183.767 333.835 185.295 333.835C186.033 333.835 186.604 333.679 187.009 333.367C187.404 333.066 187.602 332.661 187.602 332.152C187.602 331.642 187.404 331.253 187.009 330.982C186.625 330.733 185.965 330.458 185.03 330.156L183.985 329.813C183.882 329.772 183.58 329.637 183.081 329.408C182.718 329.221 182.453 329.034 182.286 328.847C181.829 328.338 181.601 327.73 181.601 327.023C181.601 326.067 181.933 325.319 182.598 324.779C183.263 324.217 184.074 323.937 185.03 323.937C185.882 323.937 186.635 324.155 187.29 324.592C187.913 325.007 188.391 325.584 188.724 326.322L187.508 327.023C187.041 325.901 186.214 325.34 185.03 325.34C184.427 325.34 183.949 325.485 183.596 325.776C183.232 326.078 183.05 326.472 183.05 326.961C183.05 327.439 183.222 327.803 183.565 328.052C183.897 328.301 184.489 328.561 185.342 328.831L185.981 329.034L186.09 329.065L186.214 329.112C186.298 329.143 186.412 329.19 186.557 329.252C186.921 329.387 187.285 329.559 187.648 329.767C187.939 329.922 188.22 330.162 188.49 330.484C188.854 330.847 189.036 331.393 189.036 332.12C189.036 333.076 188.688 333.84 187.991 334.412C187.285 334.973 186.376 335.253 185.264 335.253C184.245 335.253 183.372 335.014 182.645 334.536ZM194.624 327.257V328.566H192.55V332.791C192.55 333.331 192.722 333.663 193.065 333.788C193.273 333.871 193.792 333.887 194.624 333.835V335.051C193.428 335.207 192.561 335.108 192.02 334.755C191.47 334.391 191.194 333.736 191.194 332.791V328.566H189.651V327.257H191.194V325.48L192.55 325.075V327.257H194.624ZM203.315 331.777H196.784C196.93 332.474 197.247 333.014 197.735 333.399C198.223 333.783 198.847 333.975 199.605 333.975C200.634 333.975 201.382 333.596 201.85 332.837L203.004 333.492C202.235 334.666 201.091 335.253 199.574 335.253C198.358 335.253 197.35 334.869 196.55 334.1C195.781 333.3 195.397 332.318 195.397 331.154C195.397 329.959 195.776 328.982 196.535 328.223C197.293 327.444 198.275 327.054 199.481 327.054C200.624 327.054 201.554 327.46 202.271 328.27C202.998 329.06 203.362 330.026 203.362 331.169C203.362 331.367 203.346 331.57 203.315 331.777ZM197.673 328.94C197.184 329.346 196.888 329.897 196.784 330.593H201.99C201.886 329.876 201.595 329.315 201.117 328.909C200.671 328.525 200.125 328.333 199.481 328.333C198.753 328.333 198.151 328.535 197.673 328.94ZM209.223 327.054C210.314 327.054 211.244 327.454 212.013 328.255C212.782 329.055 213.167 330.021 213.167 331.154C213.167 332.297 212.782 333.269 212.013 334.069C211.255 334.859 210.325 335.253 209.223 335.253C207.934 335.253 206.952 334.739 206.277 333.71V338.168H204.921V327.257H206.277V328.598C206.952 327.569 207.934 327.054 209.223 327.054ZM211.016 333.149C211.546 332.598 211.811 331.933 211.811 331.154C211.811 330.364 211.546 329.704 211.016 329.174C210.486 328.634 209.831 328.364 209.052 328.364C208.262 328.364 207.602 328.634 207.072 329.174C206.542 329.704 206.277 330.364 206.277 331.154C206.277 331.933 206.542 332.598 207.072 333.149C207.602 333.679 208.262 333.944 209.052 333.944C209.831 333.944 210.486 333.679 211.016 333.149ZM217.33 330.53C217.61 330.582 217.927 330.665 218.28 330.78C218.644 330.894 218.951 331.034 219.2 331.201C219.844 331.616 220.161 332.188 220.151 332.915C220.151 333.622 219.876 334.188 219.325 334.614C218.774 335.04 218.078 335.253 217.236 335.253C216.488 335.253 215.838 335.087 215.288 334.755C214.758 334.432 214.373 333.991 214.134 333.43L215.303 332.759C215.573 333.57 216.218 333.975 217.236 333.975C218.265 333.975 218.779 333.622 218.779 332.915C218.779 332.385 218.265 332.001 217.236 331.762L216.769 331.637L216.27 331.481C215.885 331.346 215.584 331.206 215.366 331.06C214.732 330.676 214.415 330.115 214.415 329.377C214.415 328.701 214.675 328.146 215.194 327.709C215.724 327.273 216.384 327.054 217.174 327.054C218.514 327.054 219.45 327.595 219.98 328.675L218.842 329.315C218.561 328.65 218.005 328.317 217.174 328.317C216.789 328.317 216.462 328.405 216.192 328.582C215.922 328.79 215.786 329.05 215.786 329.361C215.786 329.86 216.301 330.25 217.33 330.53Z" fill="black"/>
<path d="M270.317 3.72937H271.938L268.072 10.2294V14.6406H266.623V10.2138L262.773 3.72937H264.394L267.355 8.84207L270.317 3.72937ZM278.109 13.6586C277.32 14.4484 276.348 14.8433 275.194 14.8433C274.041 14.8433 273.069 14.4484 272.28 13.6586C271.49 12.8688 271.095 11.8972 271.095 10.7437C271.095 9.59027 271.49 8.61865 272.28 7.82889C273.069 7.03912 274.041 6.64424 275.194 6.64424C276.348 6.64424 277.32 7.03912 278.109 7.82889C278.909 8.62905 279.31 9.60067 279.31 10.7437C279.31 11.8868 278.909 12.8585 278.109 13.6586ZM275.194 13.5183C275.974 13.5183 276.628 13.2533 277.158 12.7234C277.688 12.1934 277.953 11.5335 277.953 10.7437C277.953 9.95398 277.688 9.29411 277.158 8.76414C276.628 8.23416 275.974 7.96917 275.194 7.96917C274.425 7.96917 273.776 8.23416 273.246 8.76414C272.716 9.29411 272.451 9.95398 272.451 10.7437C272.451 11.5335 272.716 12.1934 273.246 12.7234C273.776 13.2533 274.425 13.5183 275.194 13.5183ZM286.286 10.9776V6.84687H287.642V14.6406H286.286V13.5183C285.746 14.4016 284.904 14.8433 283.761 14.8433C282.836 14.8433 282.103 14.5575 281.563 13.9859C281.012 13.404 280.737 12.6194 280.737 11.6322V6.84687H282.093V11.5543C282.093 12.1778 282.264 12.6662 282.607 13.0195C282.95 13.3728 283.423 13.5495 284.026 13.5495C284.722 13.5495 285.268 13.3365 285.662 12.9104C286.078 12.4844 286.286 11.8401 286.286 10.9776ZM300.057 8.1874V6.84687H301.413V14.6406H300.057V13.3001C299.392 14.3289 298.41 14.8433 297.111 14.8433C296.009 14.8433 295.079 14.4484 294.321 13.6586C293.552 12.8585 293.167 11.8868 293.167 10.7437C293.167 9.61106 293.552 8.64463 294.321 7.84447C295.09 7.04432 296.02 6.64424 297.111 6.64424C298.41 6.64424 299.392 7.15862 300.057 8.1874ZM299.262 12.7389C299.792 12.1882 300.057 11.5231 300.057 10.7437C300.057 9.95398 299.792 9.29411 299.262 8.76414C298.732 8.22377 298.072 7.95359 297.282 7.95359C296.503 7.95359 295.848 8.22377 295.318 8.76414C294.788 9.29411 294.523 9.95398 294.523 10.7437C294.523 11.5231 294.788 12.1882 295.318 12.7389C295.848 13.2689 296.503 13.5339 297.282 13.5339C298.072 13.5339 298.732 13.2689 299.262 12.7389ZM304.824 6.84687V8.15622C305.27 7.1898 306.081 6.70659 307.255 6.70659V8.12505C306.59 8.09387 306.019 8.27053 305.541 8.65502C305.063 9.03952 304.824 9.65782 304.824 10.5099V14.6406H303.467V6.84687H304.824ZM315.638 11.3672H309.107C309.252 12.0635 309.569 12.6039 310.058 12.9883C310.546 13.3728 311.169 13.5651 311.928 13.5651C312.957 13.5651 313.705 13.1858 314.173 12.4272L315.326 13.0819C314.557 14.2561 313.414 14.8433 311.897 14.8433C310.681 14.8433 309.673 14.4588 308.873 13.6898C308.104 12.8896 307.719 11.9076 307.719 10.7437C307.719 9.54871 308.099 8.57189 308.857 7.8133C309.616 7.03392 310.598 6.64424 311.803 6.64424C312.946 6.64424 313.877 7.04951 314.594 7.86006C315.321 8.64983 315.685 9.61625 315.685 10.7593C315.685 10.9568 315.669 11.1594 315.638 11.3672ZM309.995 8.53032C309.507 8.9356 309.211 9.48636 309.107 10.1826H314.313C314.209 9.46557 313.918 8.90442 313.44 8.49915C312.993 8.11466 312.448 7.92241 311.803 7.92241C311.076 7.92241 310.473 8.12505 309.995 8.53032ZM327.22 7.50155C327.77 8.08348 328.046 8.86805 328.046 9.85526V14.6406H326.69V9.9332C326.69 9.3097 326.518 8.82129 326.175 8.46797C325.832 8.11466 325.359 7.938 324.757 7.938C324.05 7.938 323.505 8.14583 323.12 8.5615C322.704 9.00834 322.497 9.65782 322.497 10.5099V14.6406H321.14V3.72937H322.497V7.96917C323.037 7.08588 323.879 6.64424 325.022 6.64424C325.947 6.64424 326.679 6.93001 327.22 7.50155ZM337.421 11.3672H330.89C331.035 12.0635 331.352 12.6039 331.84 12.9883C332.329 13.3728 332.952 13.5651 333.711 13.5651C334.74 13.5651 335.488 13.1858 335.956 12.4272L337.109 13.0819C336.34 14.2561 335.197 14.8433 333.68 14.8433C332.464 14.8433 331.456 14.4588 330.656 13.6898C329.887 12.8896 329.502 11.9076 329.502 10.7437C329.502 9.54871 329.882 8.57189 330.64 7.8133C331.399 7.03392 332.381 6.64424 333.586 6.64424C334.729 6.64424 335.659 7.04951 336.376 7.86006C337.104 8.64983 337.468 9.61625 337.468 10.7593C337.468 10.9568 337.452 11.1594 337.421 11.3672ZM331.778 8.53032C331.29 8.9356 330.994 9.48636 330.89 10.1826H336.096C335.992 9.46557 335.701 8.90442 335.223 8.49915C334.776 8.11466 334.231 7.92241 333.586 7.92241C332.859 7.92241 332.256 8.12505 331.778 8.53032ZM340.383 6.84687V8.15622C340.829 7.1898 341.64 6.70659 342.814 6.70659V8.12505C342.149 8.09387 341.578 8.27053 341.1 8.65502C340.622 9.03952 340.383 9.65782 340.383 10.5099V14.6406H339.026V6.84687H340.383ZM351.197 11.3672H344.666C344.811 12.0635 345.128 12.6039 345.617 12.9883C346.105 13.3728 346.728 13.5651 347.487 13.5651C348.516 13.5651 349.264 13.1858 349.732 12.4272L350.885 13.0819C350.116 14.2561 348.973 14.8433 347.456 14.8433C346.24 14.8433 345.232 14.4588 344.432 13.6898C343.663 12.8896 343.278 11.9076 343.278 10.7437C343.278 9.54871 343.658 8.57189 344.416 7.8133C345.175 7.03392 346.157 6.64424 347.362 6.64424C348.505 6.64424 349.435 7.04951 350.153 7.86006C350.88 8.64983 351.244 9.61625 351.244 10.7593C351.244 10.9568 351.228 11.1594 351.197 11.3672ZM345.554 8.53032C345.066 8.9356 344.77 9.48636 344.666 10.1826H349.872C349.768 9.46557 349.477 8.90442 348.999 8.49915C348.552 8.11466 348.007 7.92241 347.362 7.92241C346.635 7.92241 346.032 8.12505 345.554 8.53032Z" fill="black"/>
<path d="M9.29905 79.9659C9.29905 80.8388 8.9925 81.5714 8.37939 82.1638C7.76628 82.7561 7.01808 83.0522 6.13479 83.0522H1.42736V72.141H5.79186C6.66476 72.141 7.38698 72.4268 7.95853 72.9983C8.55085 73.5698 8.84701 74.2765 8.84701 75.1182C8.84701 76.095 8.45213 76.8536 7.66236 77.394C8.75349 77.924 9.29905 78.7813 9.29905 79.9659ZM5.79186 73.4971H2.877V76.8328H5.79186C6.2491 76.8328 6.63359 76.6718 6.94534 76.3496C7.25709 76.0171 7.41296 75.6222 7.41296 75.165C7.41296 74.7077 7.25189 74.318 6.92975 73.9959C6.618 73.6634 6.23871 73.4971 5.79186 73.4971ZM2.877 81.6961H6.13479C6.6232 81.6961 7.03367 81.5247 7.3662 81.1817C7.69873 80.8284 7.865 80.4076 7.865 79.9192C7.865 79.4307 7.69354 79.0151 7.35061 78.6722C7.02847 78.3292 6.6232 78.1578 6.13479 78.1578H2.877V81.6961ZM12.2332 83.0522H10.877V71.6734H12.2332V83.0522ZM20.88 82.0702C20.0902 82.86 19.1186 83.2549 17.9651 83.2549C16.8116 83.2549 15.84 82.86 15.0502 82.0702C14.2605 81.2805 13.8656 80.3088 13.8656 79.1554C13.8656 78.0019 14.2605 77.0303 15.0502 76.2405C15.84 75.4507 16.8116 75.0559 17.9651 75.0559C19.1186 75.0559 20.0902 75.4507 20.88 76.2405C21.6801 77.0407 22.0802 78.0123 22.0802 79.1554C22.0802 80.2985 21.6801 81.2701 20.88 82.0702ZM17.9651 81.9299C18.7445 81.9299 19.3991 81.665 19.9291 81.135C20.4591 80.605 20.7241 79.9451 20.7241 79.1554C20.7241 78.3656 20.4591 77.7057 19.9291 77.1758C19.3991 76.6458 18.7445 76.3808 17.9651 76.3808C17.1961 76.3808 16.5466 76.6458 16.0167 77.1758C15.4867 77.7057 15.2217 78.3656 15.2217 79.1554C15.2217 79.9451 15.4867 80.605 16.0167 81.135C16.5466 81.665 17.1961 81.9299 17.9651 81.9299ZM24.4115 82.0858C23.6321 81.2961 23.2424 80.3192 23.2424 79.1554C23.2424 77.9915 23.6321 77.0199 24.4115 76.2405C25.1909 75.4507 26.1677 75.0559 27.3419 75.0559C28.1109 75.0559 28.802 75.2377 29.4151 75.6014C30.0386 75.9859 30.4958 76.4847 30.7868 77.0978L29.6489 77.7525C29.4515 77.3368 29.1501 77.0043 28.7448 76.7549C28.3188 76.5055 27.8511 76.3808 27.3419 76.3808C26.5626 76.3808 25.9079 76.6458 25.3779 77.1758C24.8583 77.7265 24.5985 78.3864 24.5985 79.1554C24.5985 79.914 24.8583 80.5686 25.3779 81.1194C25.9079 81.6494 26.5626 81.9144 27.3419 81.9144C28.4331 81.9144 29.2176 81.4623 29.6957 80.5582L30.8491 81.2285C30.5062 81.852 30.0282 82.3456 29.4151 82.7093C28.7708 83.073 28.0798 83.2549 27.3419 83.2549C26.1677 83.2549 25.1909 82.8652 24.4115 82.0858ZM34.9315 79.0307L38.7816 83.0522H37.0981L33.5442 79.358V83.0522H32.1881V72.141H33.5442V78.7033L36.9111 75.2585H38.6569L34.9315 79.0307ZM46.8093 79.7789H40.2781C40.4236 80.4751 40.7405 81.0155 41.229 81.4C41.7174 81.7845 42.3409 81.9767 43.0995 81.9767C44.1282 81.9767 44.8764 81.5974 45.3441 80.8388L46.4975 81.4935C45.7285 82.6678 44.5855 83.2549 43.0683 83.2549C41.8525 83.2549 40.8445 82.8704 40.0443 82.1014C39.2753 81.3013 38.8908 80.3192 38.8908 79.1554C38.8908 77.9603 39.2701 76.9835 40.0287 76.2249C40.7873 75.4455 41.7693 75.0559 42.9748 75.0559C44.1178 75.0559 45.0479 75.4611 45.7649 76.2717C46.4923 77.0614 46.856 78.0279 46.856 79.171C46.856 79.3684 46.8405 79.571 46.8093 79.7789ZM41.1666 76.9419C40.6782 77.3472 40.382 77.898 40.2781 78.5942H45.4843C45.3804 77.8772 45.0895 77.316 44.6114 76.9108C44.1646 76.5263 43.619 76.334 42.9748 76.334C42.2473 76.334 41.6446 76.5367 41.1666 76.9419ZM54.8529 76.599V72.141H56.209V83.0522H54.8529V81.7117C54.1878 82.7405 53.2058 83.2549 51.9069 83.2549C50.8054 83.2549 49.8753 82.86 49.1167 82.0702C48.3477 81.2701 47.9632 80.2985 47.9632 79.1554C47.9632 78.0227 48.3477 77.0563 49.1167 76.2561C49.8857 75.4559 50.8157 75.0559 51.9069 75.0559C53.2058 75.0559 54.1878 75.5702 54.8529 76.599ZM54.0579 81.1506C54.5879 80.5998 54.8529 79.9347 54.8529 79.1554C54.8529 78.3656 54.5879 77.7057 54.0579 77.1758C53.528 76.6354 52.8681 76.3652 52.0783 76.3652C51.299 76.3652 50.6443 76.6354 50.1143 77.1758C49.5843 77.7057 49.3193 78.3656 49.3193 79.1554C49.3193 79.9347 49.5843 80.5998 50.1143 81.1506C50.6443 81.6805 51.299 81.9455 52.0783 81.9455C52.8681 81.9455 53.528 81.6805 54.0579 81.1506ZM63.2049 82.5379C62.4983 82.0702 61.9943 81.4156 61.6929 80.5738L62.9399 79.8568C63.3556 81.1766 64.3272 81.8364 65.8548 81.8364C66.5926 81.8364 67.1641 81.6805 67.5694 81.3688C67.9643 81.0674 68.1617 80.6622 68.1617 80.153C68.1617 79.6438 67.9643 79.2541 67.5694 78.9839C67.1849 78.7345 66.525 78.4591 65.5898 78.1578L64.5454 77.8148C64.4415 77.7733 64.1401 77.6382 63.6413 77.4096C63.2776 77.2225 63.0126 77.0355 62.8464 76.8484C62.3891 76.3392 62.1605 75.7313 62.1605 75.0247C62.1605 74.0686 62.4931 73.3204 63.1581 72.7801C63.8232 72.2189 64.6337 71.9384 65.5898 71.9384C66.4419 71.9384 67.1953 72.1566 67.85 72.593C68.4735 73.0087 68.9515 73.5854 69.284 74.3232L68.0682 75.0247C67.6006 73.9024 66.7744 73.3412 65.5898 73.3412C64.9871 73.3412 64.509 73.4867 64.1557 73.7777C63.792 74.079 63.6102 74.4739 63.6102 74.9623C63.6102 75.4403 63.7816 75.8041 64.1246 76.0535C64.4571 76.3029 65.0494 76.5626 65.9015 76.8328L66.5406 77.0355L66.6497 77.0666L66.7744 77.1134C66.8576 77.1446 66.9719 77.1913 67.1174 77.2537C67.4811 77.3888 67.8448 77.5602 68.2085 77.7681C68.4994 77.924 68.78 78.163 69.0502 78.4851C69.4139 78.8488 69.5958 79.3944 69.5958 80.1218C69.5958 81.0778 69.2476 81.8416 68.5514 82.4132C67.8448 82.9743 66.9355 83.2549 65.8236 83.2549C64.8052 83.2549 63.9323 83.0159 63.2049 82.5379ZM75.1835 75.2585V76.5678H73.1104V80.7921C73.1104 81.3324 73.2818 81.665 73.6248 81.7897C73.8326 81.8728 74.3522 81.8884 75.1835 81.8364V83.0522C73.9885 83.2081 73.1208 83.1094 72.5804 82.7561C72.0297 82.3924 71.7543 81.7377 71.7543 80.7921V76.5678H70.2111V75.2585H71.7543V73.4815L73.1104 73.0762V75.2585H75.1835ZM83.8753 79.7789H77.3441C77.4896 80.4751 77.8065 81.0155 78.2949 81.4C78.7833 81.7845 79.4068 81.9767 80.1654 81.9767C81.1942 81.9767 81.9424 81.5974 82.41 80.8388L83.5635 81.4935C82.7945 82.6678 81.6514 83.2549 80.1343 83.2549C78.9184 83.2549 77.9104 82.8704 77.1103 82.1014C76.3413 81.3013 75.9568 80.3192 75.9568 79.1554C75.9568 77.9603 76.3361 76.9835 77.0947 76.2249C77.8533 75.4455 78.8353 75.0559 80.0407 75.0559C81.1838 75.0559 82.1139 75.4611 82.8309 76.2717C83.5583 77.0614 83.922 78.0279 83.922 79.171C83.922 79.3684 83.9064 79.571 83.8753 79.7789ZM78.2326 76.9419C77.7442 77.3472 77.448 77.898 77.3441 78.5942H82.5503C82.4464 77.8772 82.1554 77.316 81.6774 76.9108C81.2306 76.5263 80.685 76.334 80.0407 76.334C79.3133 76.334 78.7106 76.5367 78.2326 76.9419ZM89.783 75.0559C90.8742 75.0559 91.8042 75.4559 92.5732 76.2561C93.3422 77.0563 93.7267 78.0227 93.7267 79.1554C93.7267 80.2985 93.3422 81.2701 92.5732 82.0702C91.8146 82.86 90.8846 83.2549 89.783 83.2549C88.4945 83.2549 87.5125 82.7405 86.837 81.7117V86.1697H85.4809V75.2585H86.837V76.599C87.5125 75.5702 88.4945 75.0559 89.783 75.0559ZM91.5756 81.1506C92.1056 80.5998 92.3706 79.9347 92.3706 79.1554C92.3706 78.3656 92.1056 77.7057 91.5756 77.1758C91.0456 76.6354 90.391 76.3652 89.6116 76.3652C88.8218 76.3652 88.1619 76.6354 87.632 77.1758C87.102 77.7057 86.837 78.3656 86.837 79.1554C86.837 79.9347 87.102 80.5998 87.632 81.1506C88.1619 81.6805 88.8218 81.9455 89.6116 81.9455C90.391 81.9455 91.0456 81.6805 91.5756 81.1506Z" fill="black"/>
<path d="M427.68 184.436C428.771 183.334 430.106 182.784 431.686 182.784C433.265 182.784 434.601 183.334 435.692 184.436C436.793 185.527 437.344 186.862 437.344 188.442C437.344 190.011 436.793 191.346 435.692 192.448C434.601 193.549 433.265 194.1 431.686 194.1C430.106 194.1 428.771 193.549 427.68 192.448C426.589 191.336 426.043 190.001 426.043 188.442C426.043 186.862 426.589 185.527 427.68 184.436ZM434.678 185.418C433.889 184.597 432.891 184.186 431.686 184.186C430.491 184.186 429.488 184.597 428.677 185.418C427.877 186.249 427.477 187.257 427.477 188.442C427.477 189.626 427.877 190.634 428.677 191.466C429.488 192.276 430.491 192.682 431.686 192.682C432.891 192.682 433.889 192.276 434.678 191.466C435.489 190.634 435.894 189.626 435.894 188.442C435.894 187.236 435.489 186.228 434.678 185.418ZM443.249 185.901C444.34 185.901 445.27 186.301 446.039 187.101C446.808 187.901 447.192 188.868 447.192 190.001C447.192 191.144 446.808 192.115 446.039 192.915C445.28 193.705 444.35 194.1 443.249 194.1C441.96 194.1 440.978 193.586 440.303 192.557V197.015H438.946V186.104H440.303V187.444C440.978 186.415 441.96 185.901 443.249 185.901ZM445.041 191.996C445.571 191.445 445.836 190.78 445.836 190.001C445.836 189.211 445.571 188.551 445.041 188.021C444.511 187.481 443.856 187.21 443.077 187.21C442.287 187.21 441.627 187.481 441.097 188.021C440.568 188.551 440.303 189.211 440.303 190.001C440.303 190.78 440.568 191.445 441.097 191.996C441.627 192.526 442.287 192.791 443.077 192.791C443.856 192.791 444.511 192.526 445.041 191.996ZM452.883 186.104V187.413H450.81V191.637C450.81 192.178 450.981 192.51 451.324 192.635C451.532 192.718 452.051 192.734 452.883 192.682V193.897C451.688 194.053 450.82 193.955 450.28 193.601C449.729 193.238 449.453 192.583 449.453 191.637V187.413H447.91V186.104H449.453V184.327L450.81 183.921V186.104H452.883ZM455.174 184.685C454.914 184.685 454.696 184.597 454.519 184.42C454.343 184.244 454.254 184.031 454.254 183.781C454.254 183.542 454.343 183.324 454.519 183.126C454.696 182.95 454.914 182.862 455.174 182.862C455.423 182.862 455.637 182.95 455.813 183.126C455.99 183.324 456.078 183.542 456.078 183.781C456.078 184.031 455.99 184.244 455.813 184.42C455.637 184.597 455.423 184.685 455.174 184.685ZM455.844 193.897H454.488V186.104H455.844V193.897ZM464.491 192.915C463.701 193.705 462.73 194.1 461.576 194.1C460.423 194.1 459.451 193.705 458.661 192.915C457.872 192.126 457.477 191.154 457.477 190.001C457.477 188.847 457.872 187.875 458.661 187.086C459.451 186.296 460.423 185.901 461.576 185.901C462.73 185.901 463.701 186.296 464.491 187.086C465.291 187.886 465.691 188.858 465.691 190.001C465.691 191.144 465.291 192.115 464.491 192.915ZM461.576 192.775C462.356 192.775 463.01 192.51 463.54 191.98C464.07 191.45 464.335 190.79 464.335 190.001C464.335 189.211 464.07 188.551 463.54 188.021C463.01 187.491 462.356 187.226 461.576 187.226C460.807 187.226 460.158 187.491 459.628 188.021C459.098 188.551 458.833 189.211 458.833 190.001C458.833 190.79 459.098 191.45 459.628 191.98C460.158 192.51 460.807 192.775 461.576 192.775ZM473.369 186.758C473.92 187.34 474.195 188.125 474.195 189.112V193.897H472.839V189.19C472.839 188.567 472.668 188.078 472.325 187.725C471.982 187.371 471.509 187.195 470.906 187.195C470.2 187.195 469.654 187.403 469.27 187.818C468.854 188.265 468.646 188.915 468.646 189.767V193.897H467.29V186.104H468.646V187.226C469.187 186.343 470.028 185.901 471.171 185.901C472.096 185.901 472.829 186.187 473.369 186.758ZM482.542 187.444V186.104H483.898V193.897H482.542V192.557C481.877 193.586 480.895 194.1 479.596 194.1C478.494 194.1 477.564 193.705 476.806 192.915C476.037 192.115 475.652 191.144 475.652 190.001C475.652 188.868 476.037 187.901 476.806 187.101C477.575 186.301 478.505 185.901 479.596 185.901C480.895 185.901 481.877 186.415 482.542 187.444ZM481.747 191.996C482.277 191.445 482.542 190.78 482.542 190.001C482.542 189.211 482.277 188.551 481.747 188.021C481.217 187.481 480.557 187.21 479.767 187.21C478.988 187.21 478.333 187.481 477.803 188.021C477.273 188.551 477.008 189.211 477.008 190.001C477.008 190.78 477.273 191.445 477.803 191.996C478.333 192.526 478.988 192.791 479.767 192.791C480.557 192.791 481.217 192.526 481.747 191.996ZM487.309 193.897H485.952V182.519H487.309V193.897ZM501.988 182.986H503.624V193.897H502.19V185.371L498.621 191.31H498.434L494.864 185.387V193.897H493.415V182.986H495.051L498.527 188.754L501.988 182.986ZM512.395 192.915C511.606 193.705 510.634 194.1 509.48 194.1C508.327 194.1 507.355 193.705 506.566 192.915C505.776 192.126 505.381 191.154 505.381 190.001C505.381 188.847 505.776 187.875 506.566 187.086C507.355 186.296 508.327 185.901 509.48 185.901C510.634 185.901 511.606 186.296 512.395 187.086C513.195 187.886 513.596 188.858 513.596 190.001C513.596 191.144 513.195 192.115 512.395 192.915ZM509.48 192.775C510.26 192.775 510.915 192.51 511.444 191.98C511.974 191.45 512.239 190.79 512.239 190.001C512.239 189.211 511.974 188.551 511.444 188.021C510.915 187.491 510.26 187.226 509.48 187.226C508.711 187.226 508.062 187.491 507.532 188.021C507.002 188.551 506.737 189.211 506.737 190.001C506.737 190.79 507.002 191.45 507.532 191.98C508.062 192.51 508.711 192.775 509.48 192.775ZM517.898 192.448L520.345 186.104H521.811L518.693 193.897H517.103L513.986 186.104H515.451L517.898 192.448ZM530.135 190.624H523.604C523.749 191.32 524.066 191.861 524.555 192.245C525.043 192.63 525.667 192.822 526.425 192.822C527.454 192.822 528.202 192.443 528.67 191.684L529.823 192.339C529.054 193.513 527.911 194.1 526.394 194.1C525.178 194.1 524.17 193.716 523.37 192.947C522.601 192.146 522.217 191.164 522.217 190.001C522.217 188.806 522.596 187.829 523.355 187.07C524.113 186.291 525.095 185.901 526.301 185.901C527.444 185.901 528.374 186.306 529.091 187.117C529.818 187.907 530.182 188.873 530.182 190.016C530.182 190.214 530.166 190.416 530.135 190.624ZM524.492 187.787C524.004 188.192 523.708 188.743 523.604 189.439H528.81C528.706 188.722 528.415 188.161 527.937 187.756C527.49 187.371 526.945 187.179 526.301 187.179C525.573 187.179 524.97 187.382 524.492 187.787ZM534.149 189.377C534.429 189.429 534.746 189.512 535.099 189.626C535.463 189.741 535.77 189.881 536.019 190.047C536.663 190.463 536.98 191.035 536.97 191.762C536.97 192.469 536.694 193.035 536.144 193.461C535.593 193.887 534.897 194.1 534.055 194.1C533.307 194.1 532.657 193.934 532.107 193.601C531.577 193.279 531.192 192.838 530.953 192.276L532.122 191.606C532.392 192.417 533.037 192.822 534.055 192.822C535.084 192.822 535.598 192.469 535.598 191.762C535.598 191.232 535.084 190.848 534.055 190.608L533.587 190.484L533.089 190.328C532.704 190.193 532.403 190.053 532.185 189.907C531.551 189.523 531.234 188.961 531.234 188.224C531.234 187.548 531.493 186.992 532.013 186.556C532.543 186.119 533.203 185.901 533.993 185.901C535.333 185.901 536.268 186.441 536.798 187.522L535.661 188.161C535.38 187.496 534.824 187.164 533.993 187.164C533.608 187.164 533.281 187.252 533.011 187.429C532.74 187.636 532.605 187.896 532.605 188.208C532.605 188.707 533.12 189.097 534.149 189.377Z" fill="black"/>
<circle cx="253.556" cy="9.73331" r="4.76285" fill="#D8FFEE" stroke="black" stroke-width="1.73194"/>
<circle cx="43.9901" cy="97.1972" r="4.76285" fill="#FF1384" stroke="black" stroke-width="1.73194"/>
<circle cx="179.081" cy="311.958" r="4.76285" fill="#87A9F0" stroke="black" stroke-width="1.73194"/>
<path d="M266.112 142.66V225.085L337.555 266.061" stroke="black" stroke-width="1.73194"/>
<rect x="333.658" y="97.6294" width="6.92778" height="6.92778" fill="black"/>
<rect x="409.863" y="69.0522" width="6.92778" height="6.92778" fill="black"/>
<rect x="487.801" y="347.896" width="6.92778" height="6.92778" fill="black"/>
<path d="M336.256 264.762H342.318V270.824H336.256V264.762Z" fill="black"/>
<path d="M265.679 225.793L182.545 308.927" stroke="black" stroke-width="1.73194"/>
<path d="M47.4533 98.9282L122.36 146.124" stroke="black" stroke-width="1.73194"/>
<path d="M413.327 72.084V187.691V297.237L489.532 349.195" stroke="black" stroke-width="1.73194"/>
<circle cx="413.76" cy="187.258" r="4.76285" fill="#D2E1FF" stroke="black" stroke-width="1.73194"/>
<path d="M265.679 143.526L336.255 101.093" stroke="black" stroke-width="1.73194"/>
</svg>
