<svg width="345" height="250" viewBox="0 0 345 250" fill="none" xmlns="http://www.w3.org/2000/svg">
<path d="M171.111 7.604H186.318V22.811H171.111V7.604ZM144.499 26.6128H212.931V34.2163H190.12V83.6391H182.517V60.8286H174.913V83.6391H167.31V34.2163H144.499V26.6128Z" fill="black"/>
<path d="M39.4075 134.419H44.2954V139.307H39.4075V134.419ZM30.8535 140.529H52.8494V142.973H45.5174V158.859H43.0734V151.527H40.6295V158.859H38.1855V142.973H30.8535V140.529Z" fill="black"/>
<path d="M176.27 133.604H181.158V138.492H176.27V133.604ZM167.716 139.714H189.712V142.158H182.38V158.044H179.936V150.712H177.492V158.044H175.048V142.158H167.716V139.714Z" fill="black"/>
<path d="M301.728 134.419H306.616V139.307H301.728V134.419ZM293.174 140.529H315.17V142.973H307.838V158.859H305.394V151.527H302.95V158.859H300.506V142.973H293.174V140.529Z" fill="black"/>
<path d="M278.372 229.462H281.088V232.178H278.372V229.462ZM273.62 232.857H285.84V234.215H281.767V243.04H280.409V238.967H279.051V243.04H277.693V234.215H273.62V232.857Z" fill="black"/>
<path d="M152.634 229.871H155.35V232.586H152.634V229.871ZM147.882 233.265H160.102V234.623H156.028V243.448H154.671V239.375H153.313V243.448H151.955V234.623H147.882V233.265Z" fill="black"/>
<path d="M16.8704 227.019H19.5859V229.735H16.8704V227.019ZM12.1182 230.413H24.3381V231.771H20.2648V240.597H18.907V236.523H17.5492V240.597H16.1915V231.771H12.1182V230.413Z" fill="black"/>
<path d="M301.998 229.462H304.714V232.177H301.998V229.462ZM297.246 232.856H309.466V234.214H305.393V243.04H304.035V238.966H302.677V243.04H301.319V234.214H297.246V232.856Z" fill="black"/>
<path d="M176.26 229.871H178.976V232.586H176.26V229.871ZM171.508 233.265H183.728V234.623H179.654V243.448H178.297V239.375H176.939V243.448H175.581V234.623H171.508V233.265Z" fill="black"/>
<path d="M40.4934 227.019H43.2089V229.735H40.4934V227.019ZM35.7412 230.413H47.9611V231.771H43.8878V240.597H42.5301V236.523H41.1723V240.597H39.8145V231.771H35.7412V230.413Z" fill="black"/>
<path d="M325.625 229.462H328.341V232.177H325.625V229.462ZM320.873 232.856H333.093V234.214H329.02V243.04H327.662V238.966H326.304V243.04H324.946V234.214H320.873V232.856Z" fill="black"/>
<path d="M199.886 229.871H202.602V232.586H199.886V229.871ZM195.134 233.265H207.354V234.623H203.28V243.448H201.923V239.375H200.565V243.448H199.207V234.623H195.134V233.265Z" fill="black"/>
<path d="M64.1194 227.019H66.8349V229.735H64.1194V227.019ZM59.3672 230.413H71.5871V231.771H67.5138V240.597H66.156V236.523H64.7983V240.597H63.4405V231.771H59.3672V230.413Z" fill="black"/>
<path d="M53.1729 124.292C52.9169 124.247 52.7463 124.002 52.792 123.746L53.5361 119.574C53.5818 119.318 53.8264 119.147 54.0824 119.193C54.3384 119.239 54.5089 119.483 54.4633 119.739L53.8018 123.448L57.5104 124.109C57.7664 124.155 57.937 124.4 57.8913 124.656C57.8456 124.912 57.6011 125.082 57.345 125.037L53.1729 124.292ZM145.79 59.8809L53.5249 124.215L52.9862 123.443L145.251 59.1084L145.79 59.8809Z" fill="black"/>
<path d="M53.1729 124.292C52.9169 124.247 52.7463 124.002 52.792 123.746L53.5361 119.574C53.5818 119.318 53.8264 119.147 54.0824 119.193C54.3384 119.239 54.5089 119.483 54.4633 119.739L53.8018 123.448L57.5104 124.109C57.7664 124.155 57.937 124.4 57.8913 124.656C57.8456 124.912 57.6011 125.082 57.345 125.037L53.1729 124.292ZM145.79 59.8809L53.5249 124.215L52.9862 123.443L145.251 59.1084L145.79 59.8809Z" fill="black"/>
<path d="M178.379 122.53C178.562 122.715 178.86 122.717 179.045 122.534L182.059 119.555C182.244 119.372 182.246 119.074 182.063 118.889C181.88 118.704 181.582 118.702 181.397 118.885L178.718 121.533L176.07 118.854C175.887 118.669 175.589 118.668 175.404 118.85C175.219 119.033 175.217 119.331 175.4 119.516L178.379 122.53ZM178.425 91.0798L178.243 122.197L179.185 122.202L179.366 91.0853L178.425 91.0798Z" fill="black"/>
<path d="M17.9129 216.129C18.0471 216.351 18.3365 216.423 18.5592 216.289L22.1893 214.102C22.4121 213.968 22.4838 213.678 22.3496 213.456C22.2154 213.233 21.926 213.161 21.7033 213.295L18.4765 215.239L16.5325 212.013C16.3983 211.79 16.1089 211.718 15.8861 211.852C15.6634 211.986 15.5916 212.276 15.7258 212.499L17.9129 216.129ZM29.5801 168.522L17.8592 215.772L18.7732 215.999L30.4941 168.749L29.5801 168.522Z" fill="black"/>
<path d="M40.7931 216.216C40.9759 216.401 41.274 216.403 41.459 216.22L44.4731 213.241C44.6581 213.058 44.6598 212.76 44.477 212.575C44.2942 212.39 43.9961 212.388 43.8111 212.571L41.1318 215.219L38.4837 212.54C38.3008 212.355 38.0027 212.353 37.8177 212.536C37.6328 212.719 37.631 213.017 37.8139 213.202L40.7931 216.216ZM40.9373 167.817L40.6571 215.882L41.5988 215.888L41.8791 167.823L40.9373 167.817Z" fill="black"/>
<path d="M66.1504 216.296C66.3771 216.424 66.6642 216.343 66.7916 216.117L68.8686 212.423C68.9961 212.196 68.9156 211.909 68.6889 211.781C68.4622 211.654 68.1751 211.734 68.0477 211.961L66.2015 215.245L62.9178 213.399C62.6911 213.271 62.404 213.352 62.2765 213.578C62.1491 213.805 62.2295 214.092 62.4562 214.219L66.1504 216.296ZM52.8015 169.17L65.9277 216.013L66.8346 215.759L53.7083 168.916L52.8015 169.17Z" fill="black"/>
<path d="M154.477 216.508C154.596 216.739 154.879 216.831 155.111 216.712L158.883 214.781C159.115 214.663 159.206 214.379 159.088 214.147C158.97 213.916 158.686 213.824 158.454 213.943L155.101 215.659L153.384 212.306C153.266 212.074 152.982 211.983 152.751 212.101C152.519 212.22 152.428 212.504 152.546 212.735L154.477 216.508ZM169.835 168.491L154.448 216.148L155.344 216.438L170.731 168.78L169.835 168.491Z" fill="black"/>
<path d="M178.999 216.62C179.18 216.807 179.479 216.812 179.665 216.631L182.708 213.681C182.895 213.5 182.9 213.202 182.719 213.015C182.538 212.828 182.24 212.824 182.053 213.005L179.348 215.627L176.726 212.922C176.545 212.735 176.247 212.731 176.06 212.912C175.873 213.093 175.869 213.391 176.05 213.577L178.999 216.62ZM179.59 169.85L178.867 216.285L179.808 216.3L180.531 169.864L179.59 169.85Z" fill="black"/>
<path d="M203.556 216.709C203.786 216.831 204.071 216.743 204.193 216.514L206.181 212.771C206.303 212.541 206.215 212.256 205.985 212.134C205.756 212.012 205.471 212.099 205.349 212.329L203.582 215.656L200.255 213.889C200.025 213.767 199.74 213.855 199.618 214.084C199.496 214.314 199.583 214.599 199.813 214.721L203.556 216.709ZM188.978 169.588L203.327 216.431L204.227 216.155L189.879 169.312L188.978 169.588Z" fill="black"/>
<path d="M279.411 216.113C279.537 216.34 279.823 216.423 280.051 216.298L283.761 214.249C283.989 214.124 284.072 213.837 283.946 213.61C283.82 213.382 283.534 213.299 283.306 213.425L280.008 215.245L278.188 211.947C278.062 211.72 277.776 211.637 277.548 211.763C277.32 211.888 277.238 212.175 277.363 212.403L279.411 216.113ZM293.129 168.097L279.371 215.755L280.276 216.016L294.033 168.358L293.129 168.097Z" fill="black"/>
<path d="M303.928 216.216C304.111 216.401 304.409 216.403 304.594 216.22L307.608 213.241C307.793 213.058 307.795 212.76 307.612 212.575C307.429 212.39 307.131 212.388 306.946 212.571L304.267 215.219L301.618 212.54C301.436 212.355 301.137 212.353 300.953 212.536C300.768 212.719 300.766 213.017 300.949 213.202L303.928 216.216ZM304.072 167.817L303.792 215.882L304.734 215.888L305.014 167.823L304.072 167.817Z" fill="black"/>
<path d="M328.465 216.293C328.689 216.424 328.978 216.348 329.109 216.123L331.245 212.463C331.377 212.239 331.301 211.95 331.076 211.819C330.852 211.688 330.563 211.764 330.432 211.989L328.533 215.242L325.28 213.343C325.055 213.212 324.767 213.287 324.636 213.512C324.504 213.737 324.58 214.025 324.805 214.156L328.465 216.293ZM315.935 169.163L328.247 216.006L329.158 215.766L316.846 168.923L315.935 169.163Z" fill="black"/>
<path d="M301.792 126.739C302.05 126.703 302.229 126.465 302.193 126.207L301.606 122.01C301.57 121.752 301.332 121.573 301.075 121.609C300.817 121.645 300.637 121.883 300.674 122.14L301.195 125.871L297.465 126.393C297.207 126.429 297.028 126.667 297.064 126.925C297.1 127.182 297.338 127.362 297.595 127.326L301.792 126.739ZM211.831 59.0312L301.443 126.648L302.011 125.896L212.398 58.2794L211.831 59.0312Z" fill="black"/>
<rect x="11.4141" y="248" width="2.85352" height="1.72986" fill="black"/>
<rect x="149.811" y="248" width="2.85364" height="1.72986" fill="black"/>
<rect x="275.365" y="248" width="2.85352" height="1.72986" fill="black"/>
<rect x="18.5479" y="248" width="2.85352" height="1.72986" fill="black"/>
<rect x="156.944" y="248" width="2.85352" height="1.72986" fill="black"/>
<rect x="282.498" y="248" width="2.85352" height="1.72986" fill="black"/>
<rect x="25.6816" y="248" width="2.85352" height="1.72986" fill="black"/>
<rect x="164.078" y="248" width="2.85352" height="1.72986" fill="black"/>
<rect x="289.634" y="248" width="2.85352" height="1.72986" fill="black"/>
<rect x="32.8164" y="248" width="2.85358" height="1.72986" fill="black"/>
<rect x="171.212" y="248" width="2.85352" height="1.72986" fill="black"/>
<rect x="296.768" y="248" width="2.85352" height="1.72986" fill="black"/>
<rect x="39.9492" y="248" width="2.85352" height="1.72986" fill="black"/>
<rect x="178.346" y="248" width="2.85352" height="1.72986" fill="black"/>
<rect x="303.9" y="248" width="2.85352" height="1.72986" fill="black"/>
<rect x="47.084" y="248" width="2.85364" height="1.72986" fill="black"/>
<rect x="185.479" y="248" width="2.85352" height="1.72986" fill="black"/>
<rect x="311.035" y="248" width="2.85352" height="1.72986" fill="black"/>
<rect x="54.2168" y="248" width="2.85352" height="1.72986" fill="black"/>
<rect x="192.613" y="248" width="2.85352" height="1.72986" fill="black"/>
<rect x="318.169" y="248" width="2.85352" height="1.72986" fill="black"/>
<rect x="61.3516" y="248" width="2.85352" height="1.72986" fill="black"/>
<rect x="199.747" y="248" width="2.85364" height="1.72986" fill="black"/>
<rect x="325.303" y="248" width="2.85352" height="1.72986" fill="black"/>
<rect x="68.4844" y="248" width="2.85352" height="1.72986" fill="black"/>
<rect x="206.882" y="248" width="2.85352" height="1.72986" fill="black"/>
<rect x="332.437" y="248" width="2.85352" height="1.72986" fill="black"/>
</svg>
