<svg width="127" height="279" viewBox="0 0 127 279" fill="none" xmlns="http://www.w3.org/2000/svg">
<path d="M75.842 269.862L75.408 271.262H78.166L77.732 269.862C77.564 269.349 77.4053 268.84 77.256 268.336C77.1067 267.823 76.9573 267.3 76.808 266.768H76.752C76.612 267.3 76.4673 267.823 76.318 268.336C76.1687 268.84 76.01 269.349 75.842 269.862ZM73.042 275L76.15 265.816H77.466L80.574 275H79.328L78.46 272.2H75.114L74.232 275H73.042ZM81.7632 275V268.196H82.9112V275H81.7632ZM82.3512 266.796C82.1272 266.796 81.9406 266.731 81.7912 266.6C81.6512 266.46 81.5812 266.273 81.5812 266.04C81.5812 265.816 81.6512 265.634 81.7912 265.494C81.9406 265.354 82.1272 265.284 82.3512 265.284C82.5752 265.284 82.7572 265.354 82.8972 265.494C83.0466 265.634 83.1212 265.816 83.1212 266.04C83.1212 266.273 83.0466 266.46 82.8972 266.6C82.7572 266.731 82.5752 266.796 82.3512 266.796ZM85.2085 275V268.196H86.1605L86.2585 269.428H86.3005C86.5339 268.999 86.8185 268.658 87.1545 268.406C87.4905 268.154 87.8499 268.028 88.2325 268.028C88.5032 268.028 88.7459 268.075 88.9605 268.168L88.7365 269.176C88.6245 269.139 88.5219 269.111 88.4285 269.092C88.3352 269.073 88.2185 269.064 88.0785 269.064C87.7892 269.064 87.4859 269.181 87.1685 269.414C86.8605 269.647 86.5899 270.053 86.3565 270.632V275H85.2085ZM92.2493 275.168C91.4 275.168 90.7187 274.86 90.2053 274.244C89.692 273.619 89.4353 272.741 89.4353 271.612C89.4353 270.875 89.5707 270.24 89.8413 269.708C90.1213 269.167 90.4853 268.751 90.9333 268.462C91.3907 268.173 91.876 268.028 92.3893 268.028C92.7813 268.028 93.122 268.098 93.4113 268.238C93.7007 268.378 93.9947 268.569 94.2933 268.812L94.2373 267.65V265.032H95.3993V275H94.4473L94.3493 274.202H94.3073C94.046 274.463 93.738 274.692 93.3833 274.888C93.0287 275.075 92.6507 275.168 92.2493 275.168ZM92.5013 274.202C93.0987 274.202 93.6773 273.889 94.2373 273.264V269.708C93.948 269.447 93.668 269.265 93.3973 269.162C93.136 269.05 92.8653 268.994 92.5853 268.994C92.2213 268.994 91.89 269.106 91.5913 269.33C91.302 269.545 91.0687 269.848 90.8913 270.24C90.714 270.623 90.6253 271.075 90.6253 271.598C90.6253 272.41 90.7887 273.049 91.1153 273.516C91.442 273.973 91.904 274.202 92.5013 274.202ZM97.691 275V268.196H98.643L98.741 269.428H98.783C99.0163 268.999 99.301 268.658 99.637 268.406C99.973 268.154 100.332 268.028 100.715 268.028C100.986 268.028 101.228 268.075 101.443 268.168L101.219 269.176C101.107 269.139 101.004 269.111 100.911 269.092C100.818 269.073 100.701 269.064 100.561 269.064C100.272 269.064 99.9683 269.181 99.651 269.414C99.343 269.647 99.0723 270.053 98.839 270.632V275H97.691ZM105.054 275.168C104.503 275.168 103.985 275.028 103.5 274.748C103.024 274.468 102.636 274.062 102.338 273.53C102.048 272.998 101.904 272.359 101.904 271.612C101.904 270.847 102.048 270.198 102.338 269.666C102.636 269.134 103.024 268.728 103.5 268.448C103.985 268.168 104.503 268.028 105.054 268.028C105.614 268.028 106.132 268.168 106.608 268.448C107.084 268.728 107.466 269.134 107.756 269.666C108.054 270.198 108.204 270.847 108.204 271.612C108.204 272.359 108.054 272.998 107.756 273.53C107.466 274.062 107.084 274.468 106.608 274.748C106.132 275.028 105.614 275.168 105.054 275.168ZM105.054 274.216C105.642 274.216 106.113 273.978 106.468 273.502C106.832 273.017 107.014 272.387 107.014 271.612C107.014 270.828 106.832 270.193 106.468 269.708C106.113 269.223 105.642 268.98 105.054 268.98C104.475 268.98 104.004 269.223 103.64 269.708C103.276 270.193 103.094 270.828 103.094 271.612C103.094 272.387 103.276 273.017 103.64 273.502C104.004 273.978 104.475 274.216 105.054 274.216ZM109.996 277.87V268.196H110.948L111.046 268.98H111.088C111.396 268.719 111.732 268.495 112.096 268.308C112.469 268.121 112.856 268.028 113.258 268.028C114.135 268.028 114.802 268.345 115.26 268.98C115.717 269.605 115.946 270.445 115.946 271.5C115.946 272.265 115.806 272.923 115.526 273.474C115.255 274.025 114.896 274.445 114.448 274.734C114.009 275.023 113.528 275.168 113.006 275.168C112.688 275.168 112.371 275.098 112.054 274.958C111.746 274.818 111.433 274.627 111.116 274.384L111.144 275.574V277.87H109.996ZM112.81 274.202C113.37 274.202 113.832 273.964 114.196 273.488C114.569 273.003 114.756 272.34 114.756 271.5C114.756 270.753 114.616 270.151 114.336 269.694C114.065 269.227 113.608 268.994 112.964 268.994C112.674 268.994 112.38 269.073 112.082 269.232C111.792 269.391 111.48 269.619 111.144 269.918V273.488C111.452 273.749 111.75 273.936 112.04 274.048C112.329 274.151 112.586 274.202 112.81 274.202Z" fill="black"/>
<path d="M75.1 143.2V152.076H79.58V153H74.12V143.2H75.1ZM81.7813 144.32C81.6506 144.451 81.4919 144.516 81.3053 144.516C81.1186 144.516 80.9599 144.451 80.8293 144.32C80.6986 144.189 80.6333 144.031 80.6333 143.844C80.6333 143.657 80.6986 143.499 80.8293 143.368C80.9599 143.237 81.1186 143.172 81.3053 143.172C81.4919 143.172 81.6506 143.237 81.7813 143.368C81.9119 143.499 81.9773 143.657 81.9773 143.844C81.9773 144.031 81.9119 144.189 81.7813 144.32ZM81.7673 153H80.8433V146H81.7673V153ZM89.748 147.372V146H90.672V155.8H89.748V151.628C89.104 152.655 88.1614 153.168 86.92 153.168C85.9214 153.168 85.0674 152.813 84.358 152.104C83.658 151.395 83.308 150.527 83.308 149.5C83.308 148.473 83.658 147.605 84.358 146.896C85.0674 146.187 85.9214 145.832 86.92 145.832C88.1614 145.832 89.104 146.345 89.748 147.372ZM85.03 151.474C85.562 152.006 86.2154 152.272 86.99 152.272C87.7647 152.272 88.418 152.006 88.95 151.474C89.482 150.923 89.748 150.265 89.748 149.5C89.748 148.725 89.482 148.072 88.95 147.54C88.418 146.999 87.7647 146.728 86.99 146.728C86.2154 146.728 85.562 146.999 85.03 147.54C84.498 148.072 84.232 148.725 84.232 149.5C84.232 150.265 84.498 150.923 85.03 151.474ZM97.5564 149.668V146H98.4804V153H97.5564V151.908C97.0338 152.748 96.2498 153.168 95.2044 153.168C94.3644 153.168 93.6971 152.907 93.2024 152.384C92.7078 151.861 92.4604 151.166 92.4604 150.298V146H93.3844V150.298C93.3844 150.914 93.5478 151.399 93.8744 151.754C94.2104 152.099 94.6818 152.272 95.2884 152.272C95.9884 152.272 96.5344 152.062 96.9264 151.642C97.3464 151.185 97.5564 150.527 97.5564 149.668ZM101.373 144.32C101.242 144.451 101.084 144.516 100.897 144.516C100.71 144.516 100.552 144.451 100.421 144.32C100.29 144.189 100.225 144.031 100.225 143.844C100.225 143.657 100.29 143.499 100.421 143.368C100.552 143.237 100.71 143.172 100.897 143.172C101.084 143.172 101.242 143.237 101.373 143.368C101.504 143.499 101.569 143.657 101.569 143.844C101.569 144.031 101.504 144.189 101.373 144.32ZM101.359 153H100.435V146H101.359V153ZM109.34 147.372V143.2H110.264V153H109.34V151.628C108.696 152.655 107.753 153.168 106.512 153.168C105.513 153.168 104.659 152.813 103.95 152.104C103.25 151.395 102.9 150.527 102.9 149.5C102.9 148.473 103.25 147.605 103.95 146.896C104.659 146.187 105.513 145.832 106.512 145.832C107.753 145.832 108.696 146.345 109.34 147.372ZM104.622 151.474C105.154 152.006 105.807 152.272 106.582 152.272C107.357 152.272 108.01 152.006 108.542 151.474C109.074 150.923 109.34 150.265 109.34 149.5C109.34 148.725 109.074 148.072 108.542 147.54C108.01 146.999 107.357 146.728 106.582 146.728C105.807 146.728 105.154 146.999 104.622 147.54C104.09 148.072 103.824 148.725 103.824 149.5C103.824 150.265 104.09 150.923 104.622 151.474ZM113.158 144.32C113.028 144.451 112.869 144.516 112.682 144.516C112.496 144.516 112.337 144.451 112.206 144.32C112.076 144.189 112.01 144.031 112.01 143.844C112.01 143.657 112.076 143.499 112.206 143.368C112.337 143.237 112.496 143.172 112.682 143.172C112.869 143.172 113.028 143.237 113.158 143.368C113.289 143.499 113.354 143.657 113.354 143.844C113.354 144.031 113.289 144.189 113.158 144.32ZM113.144 153H112.22V146H113.144V153ZM118.815 146V146.896H116.799V151.138C116.799 151.67 116.967 152.001 117.303 152.132C117.518 152.207 118.022 152.225 118.815 152.188V153C117.816 153.159 117.084 153.089 116.617 152.79C116.122 152.491 115.875 151.941 115.875 151.138V146.896H114.405V146H115.875V144.32L116.799 144.04V146H118.815ZM123.264 151.866L125.532 146H126.512L123.516 153.644C123.236 154.353 122.848 154.899 122.354 155.282C121.859 155.674 121.304 155.847 120.688 155.8V154.932C121.537 155.035 122.176 154.549 122.606 153.476L122.788 153.042L119.652 146H120.632L123.264 151.866Z" fill="black"/>
<path d="M79.65 126.2V127.124H75.1V130.736H79.44V131.66H75.1V136H74.12V126.2H79.65ZM87.2051 130.372V129H88.1291V136H87.2051V134.628C86.5611 135.655 85.6184 136.168 84.3771 136.168C83.3784 136.168 82.5244 135.813 81.8151 135.104C81.1151 134.395 80.7651 133.527 80.7651 132.5C80.7651 131.473 81.1151 130.605 81.8151 129.896C82.5244 129.187 83.3784 128.832 84.3771 128.832C85.6184 128.832 86.5611 129.345 87.2051 130.372ZM82.4871 134.474C83.0191 135.006 83.6724 135.272 84.4471 135.272C85.2217 135.272 85.8751 135.006 86.4071 134.474C86.9391 133.923 87.2051 133.265 87.2051 132.5C87.2051 131.725 86.9391 131.072 86.4071 130.54C85.8751 129.999 85.2217 129.728 84.4471 129.728C83.6724 129.728 83.0191 129.999 82.4871 130.54C81.9551 131.072 81.6891 131.725 81.6891 132.5C81.6891 133.265 81.9551 133.923 82.4871 134.474ZM91.0095 129V130.162C91.4388 129.313 92.1761 128.888 93.2215 128.888V129.784C92.5401 129.784 92.0128 129.971 91.6395 130.344C91.2195 130.755 91.0095 131.343 91.0095 132.108V136H90.0855V129H91.0095ZM101.95 128.832C102.743 128.832 103.378 129.084 103.854 129.588C104.33 130.092 104.568 130.773 104.568 131.632V136H103.644V131.632C103.644 131.035 103.485 130.563 103.168 130.218C102.869 129.891 102.458 129.728 101.936 129.728C101.329 129.728 100.858 129.924 100.522 130.316C100.167 130.727 99.9898 131.329 99.9898 132.122V136H99.0658V131.632C99.0658 131.016 98.9211 130.545 98.6318 130.218C98.3331 129.891 97.9318 129.728 97.4278 129.728C96.8398 129.728 96.3638 129.924 95.9998 130.316C95.6078 130.745 95.4118 131.347 95.4118 132.122V136H94.4878V129H95.4118V130.022C95.9158 129.229 96.6298 128.832 97.5538 128.832C98.5711 128.832 99.2805 129.257 99.6818 130.106C100.186 129.257 100.942 128.832 101.95 128.832ZM107.293 127.32C107.162 127.451 107.004 127.516 106.817 127.516C106.63 127.516 106.472 127.451 106.341 127.32C106.21 127.189 106.145 127.031 106.145 126.844C106.145 126.657 106.21 126.499 106.341 126.368C106.472 126.237 106.63 126.172 106.817 126.172C107.004 126.172 107.162 126.237 107.293 126.368C107.424 126.499 107.489 126.657 107.489 126.844C107.489 127.031 107.424 127.189 107.293 127.32ZM107.279 136H106.355V129H107.279V136ZM112.516 128.832C113.356 128.832 114.023 129.093 114.518 129.616C115.012 130.139 115.26 130.834 115.26 131.702V136H114.336V131.702C114.336 131.086 114.172 130.601 113.846 130.246C113.51 129.901 113.038 129.728 112.432 129.728C111.732 129.728 111.186 129.938 110.794 130.358C110.374 130.815 110.164 131.473 110.164 132.332V136H109.24V129H110.164V130.092C110.686 129.252 111.47 128.832 112.516 128.832ZM123.066 130.372V129H123.99V135.72C123.99 136.728 123.645 137.521 122.954 138.1C122.264 138.679 121.438 138.968 120.476 138.968C118.843 138.968 117.737 138.399 117.158 137.26L117.97 136.798C118.39 137.647 119.226 138.072 120.476 138.072C121.288 138.072 121.923 137.862 122.38 137.442C122.838 137.022 123.066 136.448 123.066 135.72V134.628C122.422 135.655 121.48 136.168 120.238 136.168C119.24 136.168 118.386 135.813 117.676 135.104C116.976 134.395 116.626 133.527 116.626 132.5C116.626 131.473 116.976 130.605 117.676 129.896C118.386 129.187 119.24 128.832 120.238 128.832C121.48 128.832 122.422 129.345 123.066 130.372ZM118.348 134.474C118.88 135.006 119.534 135.272 120.308 135.272C121.083 135.272 121.736 135.006 122.268 134.474C122.8 133.923 123.066 133.265 123.066 132.5C123.066 131.725 122.8 131.072 122.268 130.54C121.736 129.999 121.083 129.728 120.308 129.728C119.534 129.728 118.88 129.999 118.348 130.54C117.816 131.072 117.55 131.725 117.55 132.5C117.55 133.265 117.816 133.923 118.348 134.474Z" fill="black"/>
<path d="M80.7 7.842C80.98 8.28067 81.12 8.75667 81.12 9.27C81.12 10.026 80.854 10.67 80.322 11.202C79.79 11.734 79.146 12 78.39 12H74.12V2.2H78.068C78.7867 2.2 79.4073 2.46133 79.93 2.984C80.4433 3.49733 80.7 4.11333 80.7 4.832C80.7 5.74667 80.3173 6.442 79.552 6.918C80.0373 7.12333 80.42 7.43133 80.7 7.842ZM78.068 3.124H75.1V6.54H78.068C78.516 6.54 78.9033 6.37667 79.23 6.05C79.5567 5.69533 79.72 5.28933 79.72 4.832C79.72 4.384 79.5567 3.98267 79.23 3.628C78.9033 3.292 78.516 3.124 78.068 3.124ZM75.1 11.076H78.39C78.8753 11.076 79.286 10.9033 79.622 10.558C79.9673 10.2127 80.14 9.78333 80.14 9.27C80.14 8.766 79.9673 8.34133 79.622 7.996C79.286 7.64133 78.8753 7.464 78.39 7.464H75.1V11.076ZM87.7264 8.668V5H88.6504V12H87.7264V10.908C87.2037 11.748 86.4197 12.168 85.3744 12.168C84.5344 12.168 83.867 11.9067 83.3724 11.384C82.8777 10.8613 82.6304 10.166 82.6304 9.298V5H83.5544V9.298C83.5544 9.914 83.7177 10.3993 84.0444 10.754C84.3804 11.0993 84.8517 11.272 85.4584 11.272C86.1584 11.272 86.7044 11.062 87.0964 10.642C87.5164 10.1847 87.7264 9.52667 87.7264 8.668ZM91.529 5V6.162C91.9583 5.31267 92.6957 4.888 93.741 4.888V5.784C93.0597 5.784 92.5323 5.97067 92.159 6.344C91.739 6.75467 91.529 7.34267 91.529 8.108V12H90.605V5H91.529ZM98.2833 4.832C99.1233 4.832 99.7907 5.09333 100.285 5.616C100.78 6.13867 101.027 6.834 101.027 7.702V12H100.103V7.702C100.103 7.086 99.94 6.60067 99.6133 6.246C99.2773 5.90067 98.806 5.728 98.1993 5.728C97.4993 5.728 96.9533 5.938 96.5613 6.358C96.1413 6.81533 95.9313 7.47333 95.9313 8.332V12H95.0073V5H95.9313V6.092C96.454 5.252 97.238 4.832 98.2833 4.832Z" fill="black"/>
<rect y="9" width="40" height="123" fill="#A2A6AE"/>
<rect y="147" width="40" height="123" fill="#414A5A"/>
<rect y="270" width="40" height="5" fill="#0E192E"/>
<rect y="132" width="40" height="15" fill="#717783"/>
<line x1="40" y1="269.5" x2="58" y2="269.5" stroke="#0E192E"/>
<line x1="40" y1="146.5" x2="58" y2="146.5" stroke="#717783"/>
<line x1="40" y1="132.5" x2="58" y2="132.5" stroke="#717783"/>
<line x1="40" y1="9.5" x2="58" y2="9.5" stroke="#A2A6AE"/>
</svg>
