<svg width="242" height="187" viewBox="0 0 242 187" fill="none" xmlns="http://www.w3.org/2000/svg">
<path d="M119.929 5.32959H130.587V15.988H119.929V5.32959ZM101.276 18.6526H149.239V23.9818H133.251V58.6215H127.922V42.6339H122.593V58.6215H117.264V23.9818H101.276V18.6526Z" fill="white"/>
<path d="M27.6194 94.2124H31.0453V97.6383H27.6194V94.2124ZM21.624 98.4948H37.0406V100.208H31.9017V111.342H30.1888V106.203H28.4758V111.342H26.7629V100.208H21.624V98.4948Z" fill="white"/>
<path d="M123.545 93.6416H126.971V97.0675H123.545V93.6416ZM117.55 97.924H132.966V99.6369H127.827V110.771H126.114V105.632H124.401V110.771H122.688V99.6369H117.55V97.924Z" fill="white"/>
<path d="M211.476 94.2124H214.902V97.6383H211.476V94.2124ZM205.481 98.4948H220.897V100.208H215.758V111.342H214.045V106.203H212.333V111.342H210.62V100.208H205.481V98.4948Z" fill="white"/>
<path d="M195.108 160.827H197.012V162.73H195.108V160.827ZM191.778 163.206H200.342V164.157H197.487V170.343H196.536V167.488H195.584V170.343H194.633V164.157H191.778V163.206Z" fill="white"/>
<path d="M106.978 161.113H108.882V163.017H106.978V161.113ZM103.648 163.492H112.212V164.444H109.358V170.63H108.406V167.775H107.454V170.63H106.503V164.444H103.648V163.492Z" fill="white"/>
<path d="M11.8222 159.114H13.7255V161.018H11.8222V159.114ZM8.49146 161.493H17.0562V162.445H14.2013V168.631H13.2497V165.776H12.298V168.631H11.3464V162.445H8.49146V161.493Z" fill="white"/>
<path d="M211.667 160.827H213.57V162.73H211.667V160.827ZM208.336 163.206H216.901V164.157H214.046V170.343H213.094V167.488H212.143V170.343H211.191V164.157H208.336V163.206Z" fill="white"/>
<path d="M123.537 161.113H125.441V163.017H123.537V161.113ZM120.207 163.492H128.771V164.444H125.916V170.63H124.965V167.775H124.013V170.63H123.061V164.444H120.207V163.492Z" fill="white"/>
<path d="M28.3805 159.114H30.2838V161.018H28.3805V159.114ZM25.0498 161.493H33.6146V162.445H30.7597V168.631H29.808V165.776H28.8564V168.631H27.9047V162.445H25.0498V161.493Z" fill="white"/>
<path d="M228.226 160.827H230.129V162.73H228.226V160.827ZM224.895 163.206H233.46V164.157H230.605V170.343H229.653V167.488H228.701V170.343H227.75V164.157H224.895V163.206Z" fill="white"/>
<path d="M140.096 161.113H141.999V163.017H140.096V161.113ZM136.765 163.492H145.33V164.444H142.475V170.63H141.524V167.775H140.572V170.63H139.62V164.444H136.765V163.492Z" fill="white"/>
<path d="M44.9391 159.114H46.8424V161.018H44.9391V159.114ZM41.6084 161.493H50.1732V162.445H47.3182V168.631H46.3666V165.776H45.415V168.631H44.4633V162.445H41.6084V161.493Z" fill="white"/>
<path d="M37.2589 87.1659C37.0511 87.1288 36.9127 86.9304 36.9498 86.7226L37.5537 83.3365C37.5908 83.1287 37.7893 82.9903 37.997 83.0273C38.2048 83.0644 38.3432 83.2629 38.3062 83.4707L37.7693 86.4805L40.7792 87.0174C40.987 87.0544 41.1254 87.2529 41.0883 87.4607C41.0513 87.6685 40.8528 87.8069 40.645 87.7698L37.2589 87.1659ZM102.212 42.0122L37.5446 87.1032L37.1074 86.4762L101.775 41.3852L102.212 42.0122Z" fill="white"/>
<path d="M37.2589 87.1659C37.0511 87.1288 36.9127 86.9304 36.9498 86.7226L37.5537 83.3365C37.5908 83.1287 37.7893 82.9903 37.997 83.0273C38.2048 83.0644 38.3432 83.2629 38.3062 83.4707L37.7693 86.4805L40.7792 87.0174C40.987 87.0544 41.1254 87.2529 41.0883 87.4607C41.0513 87.6685 40.8528 87.8069 40.645 87.7698L37.2589 87.1659ZM102.212 42.0122L37.5446 87.1032L37.1074 86.4762L101.775 41.3852L102.212 42.0122Z" fill="white"/>
<path d="M124.986 85.9164C125.134 86.0665 125.376 86.0679 125.526 85.9196L127.973 83.5017C128.123 83.3533 128.124 83.1113 127.976 82.9612C127.827 82.8111 127.585 82.8097 127.435 82.958L125.261 85.1073L123.112 82.9328C122.963 82.7827 122.721 82.7813 122.571 82.9297C122.421 83.0781 122.42 83.32 122.568 83.4701L124.986 85.9164ZM125.003 63.8362L124.875 85.6455L125.64 85.65L125.767 63.8406L125.003 63.8362Z" fill="white"/>
<path d="M12.5104 151.508C12.6193 151.689 12.8542 151.747 13.035 151.638L15.9811 149.863C16.1619 149.754 16.2201 149.52 16.1112 149.339C16.0023 149.158 15.7674 149.1 15.5867 149.209L12.9679 150.786L11.3901 148.168C11.2811 147.987 11.0463 147.929 10.8655 148.037C10.6847 148.146 10.6264 148.381 10.7354 148.562L12.5104 151.508ZM20.6818 118.102L12.4668 151.219L13.2087 151.403L21.4237 118.286L20.6818 118.102Z" fill="white"/>
<path d="M28.5538 151.579C28.7021 151.729 28.9441 151.731 29.0942 151.582L31.5405 149.165C31.6906 149.016 31.692 148.774 31.5436 148.624C31.3953 148.474 31.1533 148.473 31.0032 148.621L28.8287 150.77L26.6795 148.596C26.5311 148.446 26.2891 148.444 26.139 148.593C25.9889 148.741 25.9875 148.983 26.1358 149.133L28.5538 151.579ZM28.6398 117.62L28.4434 151.308L29.2077 151.313L29.4041 117.625L28.6398 117.62Z" fill="white"/>
<path d="M46.3389 151.644C46.5229 151.748 46.7559 151.682 46.8593 151.498L48.545 148.5C48.6484 148.316 48.5831 148.083 48.3992 147.98C48.2152 147.876 47.9822 147.942 47.8787 148.126L46.3804 150.791L43.7153 149.292C43.5313 149.189 43.2983 149.254 43.1949 149.438C43.0915 149.622 43.1567 149.855 43.3407 149.959L46.3389 151.644ZM36.9582 118.583L46.1582 151.414L46.8942 151.208L37.6942 118.376L36.9582 118.583Z" fill="white"/>
<path d="M108.225 151.771C108.321 151.958 108.552 152.033 108.74 151.937L111.801 150.369C111.989 150.273 112.064 150.043 111.967 149.855C111.871 149.667 111.641 149.593 111.453 149.689L108.731 151.082L107.338 148.361C107.242 148.173 107.012 148.098 106.824 148.195C106.636 148.291 106.562 148.521 106.658 148.709L108.225 151.771ZM118.986 118.076L108.202 151.479L108.929 151.714L119.714 118.311L118.986 118.076Z" fill="white"/>
<path d="M125.421 151.862C125.568 152.014 125.81 152.018 125.961 151.871L128.431 149.477C128.582 149.33 128.586 149.088 128.439 148.936C128.292 148.785 128.05 148.781 127.899 148.928L125.704 151.056L123.576 148.861C123.429 148.709 123.187 148.705 123.035 148.852C122.884 148.999 122.88 149.241 123.027 149.393L125.421 151.862ZM125.82 119.044L125.313 151.59L126.077 151.602L126.584 119.056L125.82 119.044Z" fill="white"/>
<path d="M142.646 151.934C142.832 152.033 143.064 151.962 143.163 151.776L144.776 148.738C144.875 148.552 144.804 148.32 144.617 148.221C144.431 148.122 144.2 148.193 144.101 148.38L142.667 151.08L139.967 149.646C139.78 149.547 139.549 149.618 139.45 149.804C139.351 149.991 139.422 150.222 139.608 150.321L142.646 151.934ZM132.403 118.877L142.46 151.709L143.19 151.485L133.134 118.653L132.403 118.877Z" fill="white"/>
<path d="M195.789 151.496C195.891 151.681 196.124 151.748 196.309 151.646L199.32 149.984C199.505 149.882 199.572 149.649 199.47 149.464C199.368 149.28 199.135 149.213 198.95 149.315L196.274 150.792L194.796 148.115C194.694 147.931 194.462 147.863 194.277 147.965C194.092 148.067 194.025 148.3 194.127 148.485L195.789 151.496ZM205.399 117.803L195.757 151.205L196.491 151.417L206.134 118.015L205.399 117.803Z" fill="white"/>
<path d="M212.982 151.579C213.13 151.729 213.372 151.731 213.522 151.582L215.968 149.165C216.119 149.016 216.12 148.774 215.972 148.624C215.823 148.474 215.581 148.473 215.431 148.621L213.257 150.77L211.107 148.596C210.959 148.446 210.717 148.444 210.567 148.593C210.417 148.741 210.415 148.983 210.564 149.133L212.982 151.579ZM213.068 117.62L212.871 151.308L213.636 151.313L213.832 117.625L213.068 117.62Z" fill="white"/>
<path d="M230.191 151.641C230.373 151.748 230.607 151.686 230.713 151.504L232.447 148.533C232.554 148.351 232.492 148.117 232.31 148.011C232.128 147.904 231.894 147.966 231.787 148.148L230.246 150.788L227.605 149.247C227.423 149.141 227.189 149.202 227.083 149.384C226.976 149.567 227.038 149.801 227.22 149.907L230.191 151.641ZM221.385 118.577L230.014 151.408L230.753 151.214L222.124 118.382L221.385 118.577Z" fill="white"/>
<path d="M211.529 88.881C211.738 88.8518 211.884 88.6586 211.855 88.4496L211.378 85.0432C211.349 84.8342 211.156 84.6885 210.947 84.7177C210.738 84.7469 210.592 84.9401 210.621 85.1491L211.045 88.177L208.017 88.6006C207.808 88.6299 207.662 88.823 207.692 89.032C207.721 89.2411 207.914 89.3868 208.123 89.3576L211.529 88.881ZM148.438 41.4159L211.246 88.8076L211.707 88.1975L148.898 40.8058L148.438 41.4159Z" fill="white"/>
<rect x="8" y="185" width="2" height="2" fill="white"/>
<rect x="105" y="185" width="2" height="2" fill="white"/>
<rect x="193" y="185" width="2" height="2" fill="white"/>
<rect x="13" y="185" width="2" height="2" fill="white"/>
<rect x="110" y="185" width="2" height="2" fill="white"/>
<rect x="198" y="185" width="2" height="2" fill="white"/>
<rect x="18" y="185" width="2" height="2" fill="white"/>
<rect x="115" y="185" width="2" height="2" fill="white"/>
<rect x="203" y="185" width="2" height="2" fill="white"/>
<rect x="23" y="185" width="2" height="2" fill="white"/>
<rect x="120" y="185" width="2" height="2" fill="white"/>
<rect x="208" y="185" width="2" height="2" fill="white"/>
<rect x="28" y="185" width="2" height="2" fill="white"/>
<rect x="125" y="185" width="2" height="2" fill="white"/>
<rect x="213" y="185" width="2" height="2" fill="white"/>
<rect x="33" y="185" width="2" height="2" fill="white"/>
<rect x="130" y="185" width="2" height="2" fill="white"/>
<rect x="218" y="185" width="2" height="2" fill="white"/>
<rect x="38" y="185" width="2" height="2" fill="white"/>
<rect x="135" y="185" width="2" height="2" fill="white"/>
<rect x="223" y="185" width="2" height="2" fill="white"/>
<rect x="43" y="185" width="2" height="2" fill="white"/>
<rect x="140" y="185" width="2" height="2" fill="white"/>
<rect x="228" y="185" width="2" height="2" fill="white"/>
<rect x="48" y="185" width="2" height="2" fill="white"/>
<rect x="145" y="185" width="2" height="2" fill="white"/>
<rect x="233" y="185" width="2" height="2" fill="white"/>
</svg>
